<?xml version="1.0" encoding="UTF-8"?>
<svg width="288px" height="248px" viewBox="0 0 288 248" version="1.1" xmlns="http://www.w3.org/2000/svg" xmlns:xlink="http://www.w3.org/1999/xlink">
    <!-- Generator: Sketch 63 (92445) - https://sketch.com -->
    <title>编组</title>
    <desc>Created with Sketch.</desc>
    <defs>
        <linearGradient x1="2.21307025%" y1="50%" x2="100%" y2="50%" id="linearGradient-1">
            <stop stop-color="#19F2FF" offset="0%"></stop>
            <stop stop-color="#0F97FB" offset="100%"></stop>
        </linearGradient>
        <rect id="path-2" x="0" y="0" width="288" height="248" rx="20"></rect>
    </defs>
    <g id="页面" stroke="none" stroke-width="1" fill="none" fill-rule="evenodd">
        <g id="名片" transform="translate(-44.000000, -173.000000)">
            <g id="编组" transform="translate(44.000000, 173.000000)">
                <mask id="mask-3" fill="white">
                    <use xlink:href="#path-2"></use>
                </mask>
                <use id="蒙版" fill="url(#linearGradient-1)" xlink:href="#path-2"></use>
                <g mask="url(#mask-3)" stroke-width="0.5">
                    <g transform="translate(325.610230, 94.136380) rotate(-35.000000) translate(-325.610230, -94.136380) translate(-136.389770, -63.863620)">
                        <path d="M807.175425,0.1143 C1207.66567,171.4238 427.057425,102.83205 666.039675,214.93655 C784.978925,270.7288 481.599175,200.5133 581.543675,263.5018 C626.466175,291.81405 440.466425,308.2248 425.284175,315.44205" id="Stroke-1" stroke="#A096E9"></path>
                        <path d="M806.549675,0.227325 C876.942425,30.425325 909.970425,53.979825 918.499925,71.472825 C958.137925,152.764575 468.633425,121.699825 661.985425,213.116325 C755.187925,257.310075 582.481425,221.991075 559.045175,238.153825 C553.163925,242.190575 556.851425,249.451825 576.712925,262.175575 C621.005175,290.550325 436.575175,307.519075 421.074175,315.144825" id="Stroke-3" stroke="#9F97E9"></path>
                        <path d="M805.92395,0.340375 C875.5747,30.308375 907.75495,54.554125 915.8742,71.896375 C953.7342,152.761875 467.76145,120.655625 657.9312,211.296375 C749.37595,255.139625 578.23645,220.329125 554.5807,236.784375 C548.69895,240.875875 552.3092,248.101125 571.8822,260.849625 C615.5462,289.288375 432.68395,306.813125 416.86445,314.847625" id="Stroke-5" stroke="#9F98E9"></path>
                        <path d="M805.298225,0.4534 C874.206475,30.1914 905.537225,55.12515 913.248725,72.3199 C949.318725,152.7494 466.889725,119.61165 653.876975,209.4764 C743.563975,252.96915 573.973725,218.64065 550.116475,235.41465 C544.229225,239.5544 547.767225,246.75115 567.051725,259.5234 C610.088975,288.02715 428.792475,306.1074 412.654475,314.55015" id="Stroke-7" stroke="#9E99EA"></path>
                        <path d="M804.672475,0.56645 C872.838475,30.07445 903.316725,55.6917 910.622975,72.74345 C944.891725,152.72545 466.232475,118.1257 649.822975,207.65645 C737.855725,250.5872 569.710725,216.95095 545.652225,234.04545 C539.759225,238.23245 543.226225,245.4017 562.220975,258.1972 C604.633225,286.7677 424.901225,305.4012 408.444725,314.2532" id="Stroke-9" stroke="#9E9AEA"></path>
                        <path d="M804.04675,0.679475 C871.4705,29.957475 901.094,56.253975 907.99725,73.166975 C940.4535,152.689225 465.4185,116.967725 645.76875,205.836475 C732.07175,248.362975 565.4475,215.260475 541.18775,232.675725 C535.28925,236.909975 538.68575,244.052725 557.39025,256.870975 C599.1795,285.509725 421.01,304.695475 404.235,313.955725" id="Stroke-11" stroke="#9D9BEA"></path>
                        <path d="M803.421025,0.7924 C870.102525,29.84065 898.869025,56.81165 905.371525,73.59065 C936.004775,152.63915 464.606525,115.8084 641.714525,204.0164 C726.288275,246.1384 561.184025,213.5689 536.723525,231.30615 C530.819025,235.5879 534.145525,242.70415 552.559525,255.54515 C593.727775,284.2529 417.118775,303.98965 400.025025,313.6584" id="Stroke-13" stroke="#9C9CEA"></path>
                        <path d="M802.7953,0.905425 C868.73455,29.723425 896.6418,57.363925 902.7458,74.014175 C931.54655,152.574175 463.7963,114.647925 637.66055,202.196675 C720.50605,243.913175 556.92005,211.876925 532.2593,229.936675 C526.3488,234.264925 529.60605,241.356425 547.7288,254.218925 C588.2778,282.997925 413.2273,303.283925 395.8153,313.361175" id="Stroke-15" stroke="#9C9DEA"></path>
                        <path d="M802.1693,1.018475 C867.36655,29.606725 894.41205,57.911475 900.12005,74.437725 C927.0793,152.493225 462.9883,113.485725 633.6063,200.376725 C714.72455,241.687975 552.6558,210.183975 527.7948,228.566975 C521.8783,232.941975 525.06705,240.009225 542.8983,252.892725 C582.8298,281.744475 409.33605,302.577725 391.6053,313.063975" id="Stroke-17" stroke="#9B9EEB"></path>
                        <path d="M801.543575,1.1315 C865.998575,29.48975 892.180325,58.453 897.494325,74.86125 C922.604075,152.39475 462.182325,112.32225 629.552325,198.55675 C708.944325,239.462 548.391325,208.49025 523.330575,227.19775 C517.407825,231.61875 520.528825,238.66275 538.067575,251.5665 C577.383825,280.49275 405.444825,301.872 387.395575,312.7665" id="Stroke-19" stroke="#9B9FEB"></path>
                        <path d="M800.91785,1.24455 C864.6306,29.3728 889.9466,58.9888 894.8686,75.2848 C918.1226,152.27755 461.3786,111.15705 625.4981,196.7368 C703.16485,237.23605 544.1266,206.7958 518.86635,225.82805 C512.9371,230.2953 515.99085,237.3168 533.23685,250.2403 C571.9396,279.2428 401.5536,301.1663 383.1856,312.4693" id="Stroke-21" stroke="#9AA0EB"></path>
                        <path d="M800.292125,1.357575 C863.262625,29.255825 887.711375,59.518075 892.242875,75.708325 C913.636125,152.140325 460.577625,109.990325 621.443875,194.916825 C697.386625,235.009325 539.861375,205.100575 514.401875,224.458575 C508.466375,228.971825 511.453625,235.971825 528.406125,248.914325 C566.497375,277.995075 397.662375,300.460325 378.975625,312.172075" id="Stroke-23" stroke="#99A1EB"></path>
                        <path d="M799.666375,1.470625 C861.894625,29.138875 885.474125,60.040875 889.617125,76.132125 C909.146375,151.981625 459.779375,108.821875 617.389875,193.096875 C691.609625,232.782625 535.595875,203.404125 509.937625,223.089125 C503.995625,227.647875 506.916875,234.627625 523.575375,247.588125 C561.057125,276.748875 393.770875,299.754375 374.765875,311.874625" id="Stroke-25" stroke="#99A2EB"></path>
                        <path d="M799.04065,1.58365 C860.52665,29.0219 883.23565,60.55715 886.99165,76.5554 C904.6554,151.8004 458.9839,107.6514 613.33565,191.2769 C685.8339,230.5554 531.3299,201.7074 505.4734,221.71965 C499.52465,226.32365 502.38065,233.2844 518.74465,246.2619 C555.6189,275.50515 389.87965,299.0484 370.55615,311.57765" id="Stroke-27" stroke="#98A3EB"></path>
                        <path d="M798.414925,1.696575 C859.158675,28.904825 880.996175,61.065825 884.365925,76.979075 C900.165175,151.595825 458.191425,106.479575 609.281425,189.457075 C680.059675,228.327825 527.063675,200.009825 501.009175,220.350075 C495.053425,224.999325 497.844675,231.941825 513.914175,244.935825 C550.182925,274.263325 385.988425,298.342575 366.346175,311.280075" id="Stroke-29" stroke="#98A4EC"></path>
                        <path d="M797.789175,1.8096 C857.790675,28.7881 878.755925,61.56735 881.740175,77.4026 C895.677925,151.3666 457.402425,105.3056 605.227175,187.6371 C674.286925,226.09985 522.797175,198.3116 496.544675,218.9806 C490.582175,223.67485 493.309425,230.60035 509.083425,243.60985 C544.748675,273.0241 382.097175,297.63685 362.136425,310.9831" id="Stroke-31" stroke="#97A5EC"></path>
                        <path d="M797.16345,1.92265 C856.4227,28.67115 876.5152,62.06115 879.11445,77.82615 C891.1962,151.1119 456.6167,104.1299 601.1732,185.81715 C668.5157,223.8714 518.5302,196.6129 492.08045,217.6109 C486.1107,222.35015 488.7747,229.2599 504.2527,242.28365 C539.31645,271.78715 378.2057,296.9309 357.92645,310.68565" id="Stroke-33" stroke="#96A6EC"></path>
                        <path d="M796.537725,2.035675 C855.054475,28.553925 874.274475,62.547175 876.488725,78.249675 C886.722725,150.831175 455.834975,102.952175 597.118975,183.997175 C662.745975,221.642675 514.262725,194.913175 487.616225,216.241425 C481.639225,221.025175 484.240225,227.920425 499.421975,240.957425 C533.886225,270.552675 374.314475,296.224925 353.716725,310.388425" id="Stroke-35" stroke="#96A6EC"></path>
                        <path d="M795.911975,2.148725 C853.686725,28.436975 872.033975,63.025475 873.862975,78.673225 C882.260475,150.523975 455.056975,101.772475 593.064975,182.177225 C656.978225,219.413725 509.995225,193.212975 483.151725,214.871975 C477.167725,219.700475 479.706225,226.582225 494.591225,239.631225 C528.457975,269.320725 370.423225,295.519225 349.506975,310.091225" id="Stroke-37" stroke="#95A7EC"></path>
                        <path d="M795.28625,2.26175 C852.31875,28.32 869.7945,63.4955 871.23725,79.09675 C877.812,150.19 454.2835,100.59025 589.01075,180.35725 C651.2125,217.1845 505.727,191.512 478.6875,213.50225 C472.696,218.37525 475.17275,225.245 489.76075,238.305 C523.0315,268.09175 366.532,294.8135 345.297,309.79375" id="Stroke-39" stroke="#95A8ED"></path>
                        <path d="M794.660525,2.3748 C850.950775,28.20305 867.556025,63.95755 868.611525,79.52055 C873.380275,149.82955 453.514525,99.4063 584.956775,178.5373 C645.448525,214.9548 501.458525,189.8108 474.223275,212.13305 C468.224275,217.0498 470.639525,223.90905 484.930025,236.97905 C517.607275,266.8653 362.640775,294.1073 341.087275,309.49655" id="Stroke-41" stroke="#94A9ED"></path>
                        <path d="M794.0348,2.487825 C849.58255,28.086325 865.3193,64.411325 865.9858,79.943825 C868.9683,149.442325 452.75055,98.220075 580.90255,176.717325 C639.68705,212.725075 497.18955,188.108575 469.7588,210.763325 C463.7523,215.724325 466.1068,222.574325 480.0993,235.652825 C512.1848,265.642075 358.7493,293.401575 336.8773,309.199325" id="Stroke-43" stroke="#93AAED"></path>
                        <path d="M793.40905,2.60075 C848.2148,27.96925 863.0848,64.85725 863.362995,80.3675 C864.57905,149.0295 451.9923,97.0315 576.8483,174.8975 C633.92805,210.49475 492.9203,186.406 465.29455,209.394 C459.2803,214.3985 461.57405,221.24125 475.26855,234.3265 C506.7643,264.42175 354.85805,292.69575 332.66755,308.902" id="Stroke-45" stroke="#93ABED"></path>
                        <path d="M792.783325,2.713775 C846.846825,27.852275 863.623325,65.566775 860.734575,80.791025 C872.353825,147.590275 451.239575,95.840525 572.794075,173.077525 C628.171325,208.264525 488.650575,184.702525 460.830325,208.024275 C454.808075,213.072775 457.041825,219.909275 470.437825,233.000525 C501.345575,263.204775 350.966825,291.989775 328.457575,308.604525" id="Stroke-47" stroke="#92ACED"></path>
                        <path d="M792.1576,2.826825 C845.47885,27.735325 861.5121,66.095575 858.10885,81.214575 C868.43335,147.365575 450.4931,94.647575 568.7401,171.257575 C622.4176,206.034075 484.3806,182.998575 456.36585,206.654825 C450.3361,211.746825 452.5096,218.578825 465.60735,231.674575 C495.9286,261.991075 347.0756,291.283825 324.2476,308.307575" id="Stroke-49" stroke="#92ADEE"></path>
                        <path d="M791.53185,2.93985 C844.1106,27.61835 859.40085,66.6246 855.4831,81.6381 C864.5126,147.1411 449.7536,93.4521 564.68585,169.43735 C616.66685,203.80385 480.1101,181.29435 451.9016,205.28535 C445.8636,210.4206 447.97785,217.24985 460.7766,230.34835 C490.5131,260.78085 343.1841,290.5781 320.03785,308.0101" id="Stroke-51" stroke="#91AEEE"></path>
                        <path d="M790.906125,3.0529 C842.742875,27.5014 857.289625,67.1534 852.857375,82.06165 C860.591875,146.91615 449.021625,92.2544 560.631625,167.61765 C610.919375,201.57365 475.839125,179.5894 447.437375,203.9159 C441.391375,209.0944 443.445875,215.92265 455.945875,229.02215 C485.099625,259.5744 339.292875,289.87215 315.828125,307.7129" id="Stroke-53" stroke="#90AFEE"></path>
                        <path d="M790.2804,3.165925 C841.3749,27.384425 855.1784,67.682175 850.23165,82.485175 C856.67115,146.691675 448.2974,91.054425 556.57765,165.797425 C605.1754,199.343425 471.5679,177.883675 442.9729,202.546175 C436.91865,207.767925 438.91415,214.596925 451.11515,227.695925 C479.6874,258.371425 335.40165,289.166425 311.61815,307.415675" id="Stroke-55" stroke="#90B0EE"></path>
                        <path d="M789.654675,3.278975 C840.006675,27.267475 853.066925,68.211225 847.605925,82.908725 C852.750675,146.466975 447.581675,89.851975 552.523425,163.977725 C599.435175,197.113725 467.296175,176.177725 438.508675,201.176725 C432.446175,206.441475 434.382425,213.272975 446.284675,226.369725 C474.276675,257.172225 331.510175,288.460475 307.408425,307.118225" id="Stroke-57" stroke="#8FB1EE"></path>
                        <path d="M789.028925,3.391875 C838.638675,27.150625 850.955675,68.740125 844.980175,83.332375 C848.829925,146.242125 446.875425,88.647875 548.469175,162.157625 C593.698925,194.884125 463.023925,174.471125 434.044425,199.807375 C427.973425,205.114875 429.850675,211.950625 441.453925,225.043625 C468.867425,255.977125 327.618925,287.754625 303.198425,306.821125" id="Stroke-59" stroke="#8EB2EE"></path>
                        <path d="M788.4032,3.504925 C837.27095,27.033675 848.84445,69.269175 842.35445,83.755925 C844.9092,146.017425 446.17945,87.441675 544.4152,160.337925 C587.9672,192.655675 458.75145,172.764175 429.57995,198.437675 C423.5007,203.788175 425.3187,210.629925 436.6232,223.717425 C463.4592,254.786175 323.7277,287.048675 298.9887,306.523925" id="Stroke-61" stroke="#8EB3EF"></path>
                        <path d="M787.777225,3.61795 C835.902975,26.9167 846.732975,69.79795 839.728725,84.17945 C840.988725,145.79295 445.494225,86.23395 540.360975,158.5177 C582.240475,190.42795 454.478475,171.05645 425.115725,197.0682 C419.027725,202.46145 420.786475,209.31145 431.792475,222.39145 C458.052475,253.59945 319.836475,286.34295 294.778725,306.22645" id="Stroke-63" stroke="#8DB4EF"></path>
                        <path d="M787.1515,3.731 C834.53475,26.79975 844.62175,70.327 837.10325,84.603 C837.068,145.56825 444.82125,85.02475 536.307,156.698 C576.51875,188.20125 450.205,169.3485 420.6515,195.69875 C414.55475,201.1345 416.254,207.99475 426.96175,221.06525 C452.6465,252.41725 315.945,285.637 290.569,305.92925" id="Stroke-65" stroke="#8DB5EF"></path>
                        <path d="M786.52575,3.844025 C833.16675,26.682775 842.5105,70.855775 834.4775,85.026525 C833.14725,145.343525 444.161,83.814525 532.25275,154.877775 C570.803,185.976275 445.9315,167.640025 416.18725,194.329275 C410.08175,199.807525 411.721,206.680025 422.13125,219.739275 C447.241,251.239275 312.05375,284.931025 286.35925,305.632025" id="Stroke-67" stroke="#8CB6EF"></path>
                        <path d="M785.900025,3.957075 C831.799025,26.565825 840.399275,71.384825 831.851775,85.450075 C829.226775,145.118825 443.515025,82.604075 528.198525,153.058075 C565.093275,183.753075 441.657275,165.931075 411.722775,192.959575 C405.608775,198.480325 407.187775,205.367325 417.300525,218.413075 C441.836525,250.065825 308.162525,284.225325 282.149275,305.334575" id="Stroke-69" stroke="#8BB7EF"></path>
                        <path d="M785.2743,4.0701 C830.43105,26.44885 838.28805,71.9136 829.22605,85.8736 C825.3058,144.8941 442.8843,81.3936 524.1443,151.23785 C559.3903,181.53235 437.3828,164.2216 407.25855,191.59035 C401.1353,197.15335 402.65405,204.0566 412.4698,217.08685 C436.4323,248.8971 304.2713,283.51935 277.93955,305.0376" id="Stroke-71" stroke="#8BB8F0"></path>
                        <path d="M784.64855,4.18315 C829.0628,26.3319 836.17655,72.44265 826.6003,86.29715 C821.38505,144.6694 442.27005,80.1844 520.0903,149.41815 C553.6948,179.31465 433.1078,162.51165 402.7943,190.22065 C396.66205,195.8259 398.11955,202.74815 407.63905,215.76065 C431.02855,247.7334 300.3798,282.8134 273.72955,304.74015" id="Stroke-73" stroke="#8AB9F0"></path>
                        <path d="M784.022825,4.29605 C827.694825,26.2148 834.065325,72.97155 823.974575,86.7208 C817.464575,144.4448 441.673575,78.97755 516.036075,147.59805 C548.007075,177.1003 428.832325,160.8013 398.329825,188.8513 C392.188825,194.49855 393.584575,201.44155 402.808325,214.43455 C425.624825,246.57405 296.488575,282.10755 269.519575,304.4428" id="Stroke-75" stroke="#8ABAF0"></path>
                        <path d="M783.3971,4.4091 C826.3271,26.09785 831.9541,73.50035 821.34885,87.14435 C813.54385,144.2201 441.09635,77.77385 511.98185,145.77835 C542.32785,174.8906 424.5566,159.09085 393.8656,187.4816 C387.71535,193.1711 389.0486,200.13735 397.9776,213.10835 C420.22085,245.4201 292.59735,281.40185 265.30985,304.1456" id="Stroke-77" stroke="#89BBF0"></path>
                        <path d="M782.77135,4.522125 C824.9591,25.980875 829.8426,74.029375 818.7231,87.567875 C809.6231,143.995375 440.53985,76.575625 507.92785,143.958125 C536.65785,172.685875 420.28035,157.379625 389.40135,186.111875 C383.2416,191.843375 384.5116,198.835125 393.1471,211.782375 C414.81635,244.271125 288.7061,280.695875 261.09985,303.848375" id="Stroke-79" stroke="#88BCF0"></path>
                        <path d="M782.145625,4.635175 C823.590875,25.864175 827.731625,74.558175 816.097375,87.991425 C805.702625,143.770675 440.005375,75.384925 503.873625,142.138425 C530.998125,170.487925 416.003875,155.667925 384.936875,184.742675 C378.768125,190.515675 379.973625,197.535425 388.316375,210.456175 C409.411125,243.127425 284.814875,279.989925 256.890125,303.550925" id="Stroke-81" stroke="#88BDF1"></path>
                        <path d="M781.5199,4.7482 C822.2229,25.7472 825.62015,75.0872 813.47165,88.41495 C801.7819,143.54595 439.4939,74.2037 499.81965,140.3182 C525.3489,168.2977 411.7269,153.95595 380.47265,183.37295 C374.2944,189.1882 375.43465,196.23745 383.48565,209.12995 C404.0049,241.98845 280.9234,279.2842 252.6804,303.2537" id="Stroke-83" stroke="#87BEF1"></path>
                        <path d="M780.894175,4.86125 C820.855175,25.63025 823.508925,75.616 810.846175,88.8385 C797.861175,143.3215 439.006925,73.0355 495.765425,138.4985 C519.711425,166.1165 407.449675,152.2435 376.008425,182.0035 C369.820675,187.86025 370.894425,194.942 378.654925,207.804 C398.597425,240.85525 277.032175,278.57825 248.470425,302.9565" id="Stroke-85" stroke="#87BFF1"></path>
                        <path d="M780.268425,4.974275 C819.486925,25.513275 821.397675,76.145025 808.220425,89.262025 C793.940425,143.096525 438.545425,71.884025 491.711425,136.678275 C514.085925,163.947025 403.171675,150.530775 371.543925,180.634025 C365.346925,186.532275 366.352675,193.648525 373.824175,206.477775 C393.188175,239.726775 273.140925,277.872525 244.260675,302.659025" id="Stroke-87" stroke="#86C0F1"></path>
                        <path d="M779.6427,5.087325 C818.11895,25.396325 819.2862,76.673825 805.5947,89.685575 C790.01995,142.872075 438.1092,70.753575 487.6572,134.858325 C508.4732,161.790325 398.8937,148.817825 367.0797,179.264575 C360.87295,185.204575 361.80945,192.357575 368.99345,205.151575 C387.7772,238.603575 269.2497,277.166325 240.0507,302.362075" id="Stroke-89" stroke="#85C1F1"></path>
                        <path d="M779.016975,5.200225 C816.751225,25.279225 817.174975,77.202725 802.968975,90.109225 C786.099225,142.647475 437.698475,69.649475 483.602975,133.038475 C502.873725,159.648975 394.615225,147.104225 362.615475,177.894975 C356.398975,183.876725 357.264725,191.068475 364.162975,203.825225 C382.363975,237.485725 265.358225,276.460725 235.840975,302.064725" id="Stroke-91" stroke="#85C2F1"></path>
                        <path d="M778.391225,5.313275 C815.383225,25.162275 815.063475,77.731775 800.343225,90.532775 C782.178475,142.422525 437.311725,68.578025 479.548725,131.218525 C497.287725,157.526525 390.336225,145.390275 358.150975,176.525525 C351.924725,182.548525 352.718475,189.781775 359.332225,202.499275 C376.947975,236.373275 261.466975,275.754775 231.630975,301.767525" id="Stroke-93" stroke="#84C3F2"></path>
                        <path d="M777.7655,5.4263 C814.015,25.0453 812.9525,78.26055 797.7175,90.9563 C778.258,142.1978 436.947,67.54605 475.49475,129.39855 C491.715,155.4253 386.057,143.6763 353.68675,175.1558 C347.45075,181.2203 348.17025,188.4968 354.5015,201.1733 C371.529,235.2658 257.57575,275.04905 227.42125,301.47005" id="Stroke-95" stroke="#84C4F2"></path>
                        <path d="M777.13965,5.53935 C812.64715,24.92835 810.84115,78.7896 795.09165,91.37985 C774.3374,141.97335 436.60015,66.56085 471.44065,127.5786 C486.15515,153.34885 381.77715,141.9616 349.2224,173.7866 C342.97665,179.89235 343.62015,187.2141 349.6709,199.8471 C366.10665,234.16335 253.6844,274.34285 223.2114,301.17285" id="Stroke-97" stroke="#83C5F2"></path>
                        <path d="M776.513925,5.652375 C811.279175,24.811375 808.729925,79.318625 792.465925,91.803375 C770.416425,141.748625 436.265425,65.631625 467.386425,125.758625 C480.606675,151.300875 377.497175,140.246625 344.758175,172.416875 C338.502425,178.563875 339.068175,185.933375 344.840175,198.520875 C360.680675,233.066125 249.793175,273.637125 219.001425,300.875625" id="Stroke-99" stroke="#82C6F2"></path>
                        <path d="M775.888175,5.765425 C809.911175,24.694425 806.618425,79.847425 789.840175,92.226925 C766.495925,141.523925 425.910175,70.538175 463.332175,123.938675 C470.404675,150.959925 373.216925,138.531425 340.293675,171.047175 C334.027925,177.235675 334.514175,184.654425 340.009425,197.194675 C355.250175,231.973675 245.901925,272.931425 214.791675,300.578175" id="Stroke-101" stroke="#82C7F2"></path>
                        <path d="M775.26245,5.87845 C808.5432,24.57745 804.5072,80.3762 787.21445,92.65045 C762.5752,141.2992 425.03845,69.4942 459.2782,122.1187 C464.5927,148.78945 368.93595,136.81595 335.82945,169.67795 C329.5537,175.90745 329.9577,183.3777 335.1787,195.86845 C349.8152,230.8857 242.0107,272.22545 210.5817,300.28095" id="Stroke-103" stroke="#81C7F3"></path>
                        <path d="M774.636725,5.9915 C807.175225,24.4605 802.395975,80.90525 784.588975,93.074 C758.654475,141.07475 424.166475,68.45 455.223975,120.29875 C458.780725,146.619 364.654725,135.1 331.365225,168.30825 C325.079225,174.579 325.398975,182.10225 330.347975,194.5425 C344.375225,229.8025 238.119225,271.5195 206.371975,299.98375" id="Stroke-105" stroke="#81C8F3"></path>
                        <path d="M774.010975,6.1044 C805.807225,24.34365 800.284475,81.43415 781.963225,93.49765 C754.733975,140.84965 423.294475,67.4059 451.169725,118.4789 C452.968975,144.44865 360.373225,133.3839 326.900725,166.9389 C320.604725,173.2504 320.838225,180.82865 325.517475,193.21615 C338.929725,228.72365 234.227975,270.81365 202.161975,299.6864" id="Stroke-107" stroke="#80C9F3"></path>
                        <path d="M773.38525,6.21745 C804.439,24.2267 798.1735,81.96295 779.3375,93.9212 C750.81325,140.6252 422.42275,66.36195 447.11575,116.65895 C447.157,142.2782 356.09125,131.6672 322.4365,165.5692 C316.13025,171.92195 316.27475,179.5567 320.68675,191.88995 C333.47825,227.6492 230.33675,270.10795 197.95225,299.3892" id="Stroke-109" stroke="#7FCAF3"></path>
                        <path d="M772.759525,6.330475 C803.071275,24.109725 796.062025,82.491975 776.711775,94.344725 C746.892525,140.400475 421.550775,65.317725 443.061525,114.838975 C441.345025,140.107725 351.809025,129.950475 317.972275,164.199975 C311.655525,170.593475 311.708775,178.285975 315.856025,190.564225 C328.020775,226.578225 226.445525,269.401975 193.742525,299.091975" id="Stroke-111" stroke="#7FCBF3"></path>
                        <path d="M772.1338,6.443525 C801.7033,23.992775 793.9508,83.021025 774.08605,94.768275 C742.97205,140.175775 420.6788,64.273525 439.0073,113.019025 C435.5333,137.937525 347.5263,128.233525 313.5078,162.830275 C307.1808,169.264775 307.1403,177.016775 311.0253,189.238025 C322.5563,225.511275 222.5543,268.696025 189.53255,298.794525" id="Stroke-113" stroke="#7ECCF4"></path>
                        <path d="M771.50805,6.55655 C800.3353,23.8758 791.83955,83.5498 771.4603,95.1918 C739.0513,139.95105 419.8068,63.2293 434.9533,111.19905 C429.7213,135.76705 343.24355,126.51605 309.04355,161.4608 C302.70605,167.9363 302.5693,175.7488 306.19455,187.9118 C317.08455,224.4473 218.6628,267.99005 185.3228,298.4973" id="Stroke-115" stroke="#7ECDF4"></path>
                        <path d="M770.882325,6.6696 C798.967075,23.75885 789.728075,84.0786 768.834575,95.61535 C735.130575,139.7266 418.935075,62.18535 430.899075,109.3791 C423.909575,133.5966 338.960075,124.79835 304.579325,160.09135 C298.231325,166.6076 297.995325,174.4816 301.363825,186.5856 C311.605575,223.3866 214.771575,267.28435 181.112825,298.2001" id="Stroke-117" stroke="#7DCEF4"></path>
                        <path d="M770.256475,6.782625 C797.599225,23.641875 787.616725,84.607625 766.208975,96.038875 C731.209725,139.501875 418.063225,61.141375 426.844975,107.559125 C418.097475,131.426125 334.676225,123.080375 300.114975,158.721875 C293.756475,165.278875 293.418975,173.215375 296.533225,185.259375 C306.118225,222.328375 210.880225,266.578625 176.902975,297.902625" id="Stroke-119" stroke="#7CCFF4"></path>
                        <path d="M769.630725,6.895675 C796.231225,23.524925 785.505725,85.136425 763.583225,96.462425 C727.289225,139.276925 417.191225,60.097175 422.790725,105.739175 C412.285725,129.255675 330.392225,121.362175 295.650725,157.352175 C289.281475,163.950175 288.839725,171.949925 291.702475,183.933175 C300.622975,221.272675 206.988975,265.872425 172.693225,297.605425" id="Stroke-121" stroke="#7CD0F4"></path>
                        <path d="M769.005,7.008575 C794.8635,23.408075 783.3945,85.665325 760.9575,96.886075 C723.3685,139.052325 416.31925,59.053075 418.73675,103.919325 C406.47375,127.085325 326.10775,119.643825 291.18625,155.982575 C284.8065,162.621325 284.25775,170.685075 286.87175,182.607075 C295.11875,220.218325 203.09775,265.166575 168.48325,297.308325" id="Stroke-123" stroke="#7BD1F4"></path>
                        <path d="M768.379275,7.121625 C793.495275,23.291125 781.283025,86.194375 758.331775,97.309625 C719.447775,138.827875 415.447525,58.008875 414.682525,102.099375 C400.661775,124.914875 321.823025,117.924875 286.722025,154.613125 C280.331525,161.292625 279.673025,169.420625 282.041275,181.280875 C289.605525,219.165875 199.206525,264.460875 164.273525,297.010875" id="Stroke-125" stroke="#7BD2F5"></path>
                        <path d="M767.75355,7.23465 C792.1273,23.17415 779.1718,86.7234 755.70605,97.73315 C715.5273,138.6029 414.57555,56.96465 410.6283,100.2794 C394.8498,122.74465 317.53805,116.2059 282.2578,153.24365 C275.85655,159.9639 275.08555,168.1564 277.21055,179.9549 C284.08305,218.11415 195.31505,263.75515 160.06355,296.7139" id="Stroke-127" stroke="#7AD3F5"></path>
                        <path d="M767.1278,7.3477 C790.7593,23.0572 774.84555,83.31645 753.08055,98.1567 C705.34605,130.70345 413.70355,55.9207 406.5743,98.45945 C389.03805,120.5742 313.25255,114.4867 277.7933,151.8742 C271.3813,158.6347 270.4953,166.8922 272.3798,178.62895 C278.5508,217.06295 191.4238,263.04895 155.8538,296.41645" id="Stroke-129" stroke="#79D4F5"></path>
                        <path d="M766.502075,7.460725 C789.391325,22.940225 772.832575,83.889225 750.454825,98.580225 C701.744825,130.557975 412.831575,54.876475 402.520075,96.639475 C383.226075,118.403725 308.966825,112.767225 273.329075,150.504475 C266.906325,157.305725 265.902575,165.627975 267.549075,177.302725 C273.008575,216.011725 187.532575,262.343225 151.643825,296.118975" id="Stroke-131" stroke="#79D5F5"></path>
                        <path d="M765.87635,7.573775 C788.02335,22.823275 770.8186,84.468025 747.8291,99.003775 C698.1346,130.424275 411.95985,53.832525 398.4661,94.819525 C377.4141,116.233275 304.6806,111.047525 268.86485,149.135275 C262.4311,155.977025 261.30685,164.363525 262.71835,175.976525 C267.4566,214.959775 183.64135,261.637275 147.4341,295.822025" id="Stroke-133" stroke="#78D6F5"></path>
                        <path d="M765.2506,7.6868 C786.65535,22.7063 768.8026,85.0528 745.20335,99.4273 C694.51485,130.3018 411.08785,52.7883 394.41185,92.99955 C371.60235,114.0628 300.3941,109.3273 264.40035,147.76555 C257.9556,154.6478 256.70885,163.09855 257.8876,174.6503 C261.8941,213.9068 179.7501,260.93155 143.22435,295.52455" id="Stroke-135" stroke="#78D7F6"></path>
                        <path d="M764.624875,7.799725 C785.287375,22.589225 766.785125,85.643225 742.577625,99.850975 C690.885625,130.189475 410.215875,51.744225 390.357625,91.179725 C365.790375,111.892475 296.107375,107.607225 259.936125,146.396225 C253.480375,153.318975 252.108125,161.833225 253.057125,173.324225 C256.321375,212.852475 175.858625,260.225475 139.014375,295.227225" id="Stroke-137" stroke="#77D8F6"></path>
                        <path d="M763.99915,7.91275 C783.9194,22.47225 764.7654,86.23875 739.9519,100.2745 C687.24665,130.087 409.34415,50.7 386.3034,89.35975 C359.97865,109.722 291.8204,105.88675 255.4719,145.0265 C249.0049,151.99 247.5049,160.56675 248.2264,171.998 C250.73815,211.79575 171.9674,259.51975 134.80465,294.93" id="Stroke-139" stroke="#76D9F6"></path>
                        <path d="M763.3733,8.0258 C782.5513,22.3553 762.74355,86.83905 737.3263,100.69805 C683.5978,129.99355 414.60505,54.73855 382.2493,87.5398 C358.03305,112.0893 287.5328,104.16605 251.00755,143.6568 C244.52955,150.6608 242.8993,159.2998 243.39555,170.6718 C245.14405,210.73655 168.07605,258.8138 130.5948,294.6328" id="Stroke-141" stroke="#76DAF6"></path>
                        <path d="M762.74755,8.138825 C781.18355,22.238325 760.71955,87.443825 734.70055,101.121575 C679.93905,129.908575 413.1063,53.737325 378.1953,85.719825 C351.8453,109.859325 283.24505,102.445075 246.54305,142.287575 C240.0543,149.331575 238.29155,158.031325 238.56505,169.345825 C239.5398,209.674075 164.1848,258.108075 126.3848,294.335325" id="Stroke-143" stroke="#75DBF6"></path>
                        <path d="M762.121825,8.251875 C779.815325,22.121625 758.693075,88.052625 732.074825,101.545125 C676.270575,129.831375 411.653325,52.678375 374.141075,83.899875 C345.677825,107.589875 278.957075,100.724125 242.078825,140.917875 C235.578825,148.002625 233.681325,156.761625 233.734325,168.019625 C233.925075,208.607625 160.293575,257.402125 122.175075,294.038375" id="Stroke-145" stroke="#75DCF7"></path>
                        <path d="M761.4961,8.3649 C778.4476,22.00465 756.6641,88.66515 729.4491,101.96865 C672.59235,129.76165 410.24835,51.5714 370.08685,82.0799 C339.5341,105.28915 274.6686,99.00265 237.6146,139.5484 C231.1031,146.6734 229.0691,155.4909 228.9036,166.6934 C228.3001,207.5369 156.40235,256.69615 117.9651,293.7409" id="Stroke-147" stroke="#74DDF7"></path>
                        <path d="M760.87035,8.47795 C777.07935,21.8877 754.6326,89.2812 726.82335,102.3922 C668.90435,129.6987 408.89085,50.42545 366.03285,80.25995 C333.4166,102.9647 270.37985,97.2812 233.1501,138.17895 C226.6276,145.3442 224.45485,154.2182 224.07285,165.36745 C222.66485,206.4617 152.51085,255.99045 113.75535,293.44345" id="Stroke-149" stroke="#73DEF7"></path>
                        <path d="M760.244625,8.590975 C775.711375,21.770475 752.598625,89.900225 724.197625,102.815725 C665.206875,129.641975 407.579375,49.248225 361.978625,78.439975 C327.325625,100.623225 266.090875,95.559475 228.685875,136.809475 C222.151875,144.014975 219.838875,152.943975 219.242125,164.041225 C217.019625,205.380725 148.619625,255.284475 109.545375,293.146475" id="Stroke-151" stroke="#73DFF7"></path>
                        <path d="M759.6189,8.7039 C774.3434,21.65365 750.5619,90.5224 721.5719,103.2394 C661.4999,129.5909 406.3114,48.04715 357.9244,76.62015 C321.2609,98.2704 261.80165,93.8374 224.22165,135.4399 C217.67615,142.68565 215.22115,151.66815 214.4114,162.7149 C211.36465,204.29415 144.7284,254.57865 105.33565,292.84915" id="Stroke-153" stroke="#72E0F7"></path>
                        <path d="M758.993175,8.816925 C772.975425,21.536675 748.522425,91.146925 718.946175,103.662925 C657.783675,129.545425 405.083925,46.827425 353.870425,74.800175 C315.220675,95.910175 257.511925,92.115175 219.757175,134.070425 C213.200675,141.356675 210.601675,150.390175 209.580925,161.388925 C205.700425,203.201425 140.836925,253.872675 101.125675,292.551675" id="Stroke-155" stroke="#71E1F7"></path>
                        <path d="M758.367425,8.929975 C771.607425,21.419725 746.480425,91.773725 716.320425,104.086475 C654.058425,129.504725 403.893675,45.594475 349.816175,72.980225 C309.204175,93.546475 253.222175,90.392975 215.292925,132.700725 C208.724925,140.027225 205.980675,149.110225 204.750175,160.062725 C200.027175,202.101975 136.945675,253.166975 96.915925,292.254475" id="Stroke-157" stroke="#71E2F8"></path>
                        <path d="M757.7417,9.043 C770.23945,21.30275 744.4357,92.4025 713.69495,104.51 C650.32445,129.4685 402.7372,44.352 345.76195,71.16025 C303.2092,91.18225 248.93195,88.6705 210.8287,131.33125 C204.24895,138.698 201.35845,147.82825 199.91945,158.7365 C194.3452,200.99525 133.05445,252.461 92.70595,291.95725" id="Stroke-159" stroke="#70E3F8"></path>
                        <path d="M757.115975,9.15605 C768.871475,21.1858 742.388225,93.0333 711.069225,104.93355 C646.581725,129.43655 401.611225,43.1033 341.707975,69.3403 C297.233975,88.81905 244.641475,86.9478 206.364475,129.9618 C199.773225,137.36855 196.734975,146.54405 195.088725,157.41055 C188.654975,199.88155 129.163225,251.75505 88.496225,291.66005" id="Stroke-161" stroke="#70E4F8"></path>
                        <path d="M756.4901,9.269075 C767.5036,21.068825 740.33835,93.665575 708.44335,105.357075 C642.8306,129.408075 400.51285,41.850825 337.6536,67.520075 C291.2766,86.459075 240.3506,85.224825 201.9001,128.592325 C195.29735,136.039325 192.11035,145.257825 190.2581,156.084325 C182.95735,198.759825 125.27185,251.049325 84.28635,291.362825" id="Stroke-163" stroke="#6FE5F8"></path>
                        <path d="M755.864375,9.382125 C766.135625,20.951875 738.285875,94.299375 705.817625,105.780625 C639.071375,129.383125 399.439375,40.596625 333.599625,65.700125 C285.335125,84.102625 236.059375,83.501875 197.435625,127.222875 C190.821375,134.710125 187.484625,143.968875 185.427375,154.758125 C177.252125,197.630625 121.380625,250.343375 80.076625,291.065375" id="Stroke-165" stroke="#6EE6F8"></path>
                        <path d="M755.23865,9.49515 C764.76765,20.8349 736.2309,94.93415 703.1919,106.20415 C635.30415,129.3614 398.3879,39.34215 329.5454,63.8804 C279.40815,81.75115 231.76815,81.7784 192.9714,125.8534 C186.3454,133.38065 182.8584,142.67765 180.59665,153.43215 C171.54065,196.4929 117.48915,249.63765 75.86665,290.76815" id="Stroke-167" stroke="#6EE7F9"></path>
                        <path d="M754.612925,9.608075 C763.399675,20.718075 734.173425,95.570325 700.566175,106.627825 C631.529175,129.342325 397.355925,38.088825 325.491425,62.060325 C273.493925,79.404825 227.476425,80.055075 188.507175,124.483825 C181.869425,132.051325 178.231425,141.384075 175.765925,152.105825 C165.822675,195.347075 113.597925,248.931575 71.656925,290.470825" id="Stroke-169" stroke="#6DE8F9"></path>
                        <path d="M753.987175,9.7211 C762.031675,20.6011 732.113425,96.2071 697.940425,107.05135 C627.746675,129.32585 396.341925,36.83735 321.437175,60.24035 C267.591175,77.06385 223.184425,78.33135 184.042675,123.11435 C177.393425,130.72185 173.603925,140.0881 170.935175,150.7796 C160.099425,194.1926 109.706675,248.22585 67.446925,290.1736" id="Stroke-171" stroke="#6DE8F9"></path>
                        <path d="M753.36145,9.83415 C760.6637,20.48415 730.0512,96.84465 695.3147,107.4749 C623.9572,129.3119 395.34345,35.58865 317.38295,58.4204 C261.6987,74.72865 218.8922,76.60765 179.57845,121.7449 C172.91745,129.3924 168.97595,138.78965 166.1047,149.45365 C154.3712,193.02965 105.81545,247.5199 63.2372,289.8764" id="Stroke-173" stroke="#6CE9F9"></path>
                        <path d="M752.735725,9.947175 C759.295725,20.367175 727.986725,97.482925 692.688975,107.898425 C620.160475,129.299675 394.358975,34.342925 313.328975,56.600425 C255.815225,72.398675 214.599725,74.883675 175.114225,120.375175 C168.441225,128.062925 164.347975,137.488925 161.273975,148.127425 C148.638475,191.858425 101.924225,246.814175 59.027225,289.578925" id="Stroke-175" stroke="#6BEAF9"></path>
                        <path d="M752.109975,10.060225 C757.927725,20.250225 725.919975,98.121725 690.063475,108.321975 C616.357225,129.289475 393.386975,33.100475 309.274725,54.780475 C249.939475,70.074475 210.306975,73.159725 170.649725,119.005725 C163.964975,126.733475 159.719475,136.185475 156.443225,146.801475 C142.901975,190.678225 98.032725,246.107975 54.817475,289.281725" id="Stroke-177" stroke="#6BEBFA"></path>
                        <path d="M751.48425,10.17325 C756.55975,20.13325 723.851,98.76075 687.43775,108.7455 C612.54725,129.28075 392.426,31.86175 305.2205,52.9605 C244.07125,67.75525 206.014,71.43525 166.1855,117.63625 C159.489,125.404 155.09125,134.87975 151.61275,145.47525 C137.16225,189.4895 94.1415,245.40225 50.6075,288.9845" id="Stroke-179" stroke="#6AECFA"></path>
                        <path d="M750.858525,10.2863 C755.191775,20.0163 721.779775,99.4003 684.812025,109.16905 C608.731025,129.27355 391.475025,30.6268 301.166525,51.14055 C238.209275,65.44155 201.720525,69.71105 161.721275,116.26655 C155.012775,124.07455 150.462775,133.57155 146.782025,144.14905 C131.420025,188.2923 90.250275,244.69655 46.397775,288.6873" id="Stroke-181" stroke="#6AEDFA"></path>
                        <path d="M750.2328,10.399325 C753.8238,19.899325 719.7068,100.039825 682.1863,109.592575 C604.90905,129.267575 390.53305,29.395825 297.1123,49.320825 C232.35305,63.132575 197.42705,67.986325 157.2568,114.897075 C150.53655,122.745075 145.8348,132.260825 141.9513,142.822825 C125.67555,187.087075 86.35905,243.990575 42.1878,288.389825" id="Stroke-183" stroke="#69EEFA"></path>
                        <path d="M749.60705,10.51225 C752.4558,19.7825 717.63155,100.6795 679.56055,110.01625 C601.0808,129.26275 389.59905,28.16875 293.05805,47.50075 C226.50205,60.8285 193.13305,66.26175 152.79255,113.52775 C146.0603,121.41575 141.20705,130.948 137.12055,141.49675 C119.9298,185.8735 82.46755,243.2845 37.97805,288.09275" id="Stroke-185" stroke="#68EFFA"></path>
                        <path d="M748.9812,10.625275 C751.0877,19.665525 715.55445,101.319025 676.93495,110.439775 C597.24695,129.259025 388.67245,26.945525 289.00395,45.680775 C220.6552,58.528775 188.8392,64.536775 148.3282,112.158025 C141.58395,120.086025 136.57945,129.632775 132.28995,140.170525 C114.18295,184.652025 78.57645,242.578775 33.7682,287.795275" id="Stroke-187" stroke="#68F0FA"></path>
                        <path d="M748.355475,10.738325 C749.719725,19.548575 713.475725,101.958825 674.309225,110.863325 C593.407725,129.256075 387.751975,25.726075 284.949975,43.860825 C214.812725,56.233325 184.544725,62.811825 143.863975,110.788575 C137.107725,118.756575 131.952475,128.315325 127.459225,138.844325 C108.435725,183.422825 74.684975,241.873075 29.558475,287.498325" id="Stroke-189" stroke="#67F1FB"></path>
                        <path d="M747.729725,10.85135 C748.351725,19.43135 711.394975,102.59835 671.683475,111.28685 C589.563475,129.25385 386.837475,24.51035 280.895725,42.04085 C208.973725,53.9421 180.157225,61.00835 139.399725,109.4191 C132.615975,117.4141 127.325975,126.9956 122.628475,137.5181 C102.688225,182.1856 70.793725,241.1671 25.348475,287.20085" id="Stroke-191" stroke="#67F2FB"></path>
                        <path d="M747.104,10.9644 C746.98375,19.3144 709.3125,103.23765 669.05775,111.7104 C585.714,129.2524 385.928,23.29815 276.8415,40.2209 C203.138,51.6549 175.87725,59.2959 134.93525,108.04965 C128.142,116.08665 122.70025,125.67365 117.79775,136.19215 C96.9415,180.94165 66.9025,240.46115 21.13875,286.9034" id="Stroke-193" stroke="#66F3FB"></path>
                        <path d="M746.478275,11.077425 C745.615775,19.197425 707.228525,103.876675 666.432025,112.133925 C581.859775,129.251175 385.023275,22.089425 272.787275,38.400925 C197.305025,49.370925 171.597275,57.583175 130.471025,106.679925 C123.668025,114.759175 118.075025,124.349675 112.967275,134.865925 C91.195525,179.690675 63.011275,239.755175 16.928775,286.606425" id="Stroke-195" stroke="#65F4FB"></path>
                        <path d="M745.85255,11.190475 C744.2478,19.080725 705.14305,104.515725 663.8063,112.557475 C578.0008,129.250475 384.1228,20.884225 268.7333,36.581225 C191.4748,47.090725 167.31705,55.870725 126.0068,105.310475 C119.1943,113.431725 113.45055,123.023725 108.13655,133.539975 C85.45105,178.432475 59.12005,239.049475 12.71905,286.308975" id="Stroke-197" stroke="#65F5FB"></path>
                        <path d="M745.2268,11.3035 C742.8798,18.96375 703.0558,105.15425 661.18055,112.981 C574.1373,129.25025 383.2263,19.6825 264.67905,34.76125 C185.64705,44.81375 163.03705,54.158 121.5423,103.941 C114.7203,112.1045 108.8268,121.696 103.3058,132.21375 C79.7078,177.16825 55.22855,238.34375 8.50905,286.01175" id="Stroke-199" stroke="#64F6FC"></path>
                        <path d="M744.601075,11.416425 C741.511825,18.846675 700.967075,105.792425 658.554825,113.404675 C570.269575,129.249925 382.315075,18.332675 260.625075,32.941175 C179.809325,42.439425 158.757075,52.445675 117.078075,102.571425 C110.246325,110.776925 104.204075,120.366425 98.475075,130.887675 C73.966825,175.897925 51.337325,237.637675 4.299075,285.714425" id="Stroke-201" stroke="#64F7FC"></path>
                        <path d="M743.97535,11.52945 C740.14385,18.7297 698.9426,106.82195 655.9291,113.8282 C566.54185,130.0652 381.4431,17.28845 256.57085,31.1212 C173.9976,40.26895 154.4771,50.73295 112.61385,101.20195 C76.4876,144.7542 58.50935,225.60495 0.08935,285.4172" id="Stroke-203" stroke="#63F8FC"></path>
                    </g>
                </g>
            </g>
        </g>
    </g>
</svg>