<?xml version="1.0" encoding="UTF-8"?>
<svg width="20px" height="20px" viewBox="0 0 20 20" version="1.1" xmlns="http://www.w3.org/2000/svg" xmlns:xlink="http://www.w3.org/1999/xlink">
    <!-- Generator: Sketch 63 (92445) - https://sketch.com -->
    <title>icon/20/删除</title>
    <desc>Created with Sketch.</desc>
    <g id="icon/20/删除" stroke="none" stroke-width="1" fill="none" fill-rule="evenodd" stroke-linecap="round" stroke-linejoin="round">
        <path d="M3,5.1029244 C3,5.1029244 7.66666667,5.1029244 17,5.1029244" id="路径-52" stroke="#CCCCCC" stroke-width="1.4"></path>
        <path d="M4.4,7.2029244 L4.4,16.4029244 C4.4,17.5074939 5.2954305,18.4029244 6.4,18.4029244 L13.6,18.4029244 C14.7045695,18.4029244 15.6,17.5074939 15.6,16.4029244 L15.6,7.60078898 L15.6,7.60078898" id="路径-53" stroke="#CCCCCC" stroke-width="1.4"></path>
        <line x1="8" y1="8" x2="8" y2="15" id="路径-54" stroke="#CCCCCC" stroke-width="1.4"></line>
        <path d="M5.8,4.5517073 L5.8,4 C5.8,2.8954305 6.6954305,2 7.8,2 L12.2,2 C13.3045695,2 14.2,2.8954305 14.2,4 L14.2,4.8 L14.2,4.8" id="路径-55" stroke="#CCCCCC" stroke-width="1.4"></path>
        <line x1="12" y1="8" x2="12" y2="15" id="路径-54" stroke="#CCCCCC" stroke-width="1.4"></line>
    </g>
</svg>