<?xml version="1.0" encoding="UTF-8"?>
<svg width="24px" height="24px" viewBox="0 0 24 24" version="1.1" xmlns="http://www.w3.org/2000/svg" xmlns:xlink="http://www.w3.org/1999/xlink">
    <!-- Generator: Sketch 63 (92445) - https://sketch.com -->
    <title>icon/新员工开卡</title>
    <desc>Created with Sketch.</desc>
    <defs>
        <linearGradient x1="100%" y1="100%" x2="14.4244184%" y2="15.0106523%" id="linearGradient-1">
            <stop stop-color="#63DD5A" offset="0%"></stop>
            <stop stop-color="#52F298" offset="100%"></stop>
            <stop stop-color="#87FFBC" offset="100%"></stop>
        </linearGradient>
        <circle id="path-2" cx="12" cy="12" r="12"></circle>
        <linearGradient x1="50%" y1="0%" x2="50%" y2="100%" id="linearGradient-4">
            <stop stop-color="#FFFFFF" offset="0%"></stop>
            <stop stop-color="#E8FFEE" offset="100%"></stop>
        </linearGradient>
    </defs>
    <g id="icon/新员工开卡" stroke="none" stroke-width="1" fill="none" fill-rule="evenodd">
        <mask id="mask-3" fill="white">
            <use xlink:href="#path-2"></use>
        </mask>
        <use id="蒙版" fill="url(#linearGradient-1)" xlink:href="#path-2"></use>
        <path d="M15.8788467,5.99971001 C15.0523596,6.66746256 14.5238095,7.68924912 14.5238095,8.83447523 C14.5238095,10.8462075 16.1547722,12.4770387 18.1666667,12.4770387 C18.9158083,12.4770387 19.6121341,12.2509252 20.1911086,11.8632283 L20.1904762,23.4 C20.1904762,24.2836556 19.4741318,25 18.5904762,25 L5.6,25 C4.7163444,25 4,24.2836556 4,23.4 L4,7.60137027 C4,6.71771467 4.7163444,6.00137027 5.6,6.00137027 L15.8788467,5.99971001 Z M7.23809524,15.714873 C6.82539894,15.714873 6.48483173,16.0236694 6.43487877,16.4227948 L6.42857143,16.5243315 L6.42857143,20.3210652 L6.43401769,20.4154652 C6.48077992,20.8180402 6.82294242,21.1305238 7.23809524,21.1305238 C7.65079153,21.1305238 7.99135874,20.8217273 8.04131171,20.422602 L8.04761905,20.3210652 L8.04761905,16.5243315 L8.04217279,16.4299316 C7.99541056,16.0273565 7.65324806,15.714873 7.23809524,15.714873 Z M12.5,15.714873 C12.0873037,15.714873 11.7467365,16.0236694 11.6967835,16.4227948 L11.6904762,16.5243315 L11.6904762,20.3210652 L11.6959224,20.4154652 C11.7426847,20.8180402 12.0848472,21.1305238 12.5,21.1305238 C12.9126963,21.1305238 13.2532635,20.8217273 13.3032165,20.422602 L13.3095238,20.3210652 L13.3095238,16.5243315 L13.3040776,16.4299316 C13.2573153,16.0273565 12.9151528,15.714873 12.5,15.714873 Z M17.3571429,15.714873 C16.9444466,15.714873 16.6038794,16.0236694 16.5539264,16.4227948 L16.547619,16.5243315 L16.547619,20.3210652 L16.5530653,20.4154652 C16.5998275,20.8180402 16.94199,21.1305238 17.3571429,21.1305238 C17.7698392,21.1305238 18.1104064,20.8217273 18.1603593,20.422602 L18.1666667,20.3210652 L18.1666667,16.5243315 L18.1612204,16.4299316 C18.1144582,16.0273565 17.7722957,15.714873 17.3571429,15.714873 Z M18.1666667,6.00137027 C19.7314735,6.00137027 21,7.26979457 21,8.83447523 C21,10.3991559 19.7314735,11.6675802 18.1666667,11.6675802 C16.6018599,11.6675802 15.3333333,10.3991559 15.3333333,8.83447523 C15.3333333,7.26979457 16.6018599,6.00137027 18.1666667,6.00137027 Z M18.2244062,6.88854567 C18.0288053,6.88854567 17.8656101,7.02727958 17.8278676,7.21170788 L17.8196443,7.29327495 L17.8193333,8.47437027 L16.6182422,8.47474363 L16.5454857,8.48126436 C16.3566649,8.51553356 16.2134803,8.6807833 16.2134803,8.87947291 C16.2134803,9.07505799 16.3522254,9.23824003 16.5366685,9.27597953 L16.6182422,9.28420219 L17.8193333,9.28337027 L17.8196443,10.5311092 L17.8261655,10.6038598 C17.8604375,10.7926654 18.0257005,10.9358385 18.2244062,10.9358385 C18.420007,10.9358385 18.5832022,10.7971046 18.6209447,10.6126763 L18.6291681,10.5311092 L18.6283333,9.28337027 L19.8563374,9.28420219 L19.9290939,9.27768146 C20.1179147,9.24341225 20.2610993,9.07816252 20.2610993,8.87947291 C20.2610993,8.68388783 20.1223542,8.52070578 19.9379111,8.48296629 L19.8563374,8.47474363 L18.6283333,8.47437027 L18.6291681,7.29327495 L18.6226468,7.22052435 C18.5883748,7.03171878 18.4231118,6.88854567 18.2244062,6.88854567 Z" id="形状结合" fill="url(#linearGradient-4)" mask="url(#mask-3)"></path>
        <g id="编组" mask="url(#mask-3)">
            <g transform="translate(16.587240, 2.596011)"></g>
        </g>
    </g>
</svg>