<?xml version="1.0" encoding="UTF-8"?>
<svg width="24px" height="24px" viewBox="0 0 24 24" version="1.1" xmlns="http://www.w3.org/2000/svg" xmlns:xlink="http://www.w3.org/1999/xlink">
    <!-- Generator: Sketch 63 (92445) - https://sketch.com -->
    <title>icon/我要挂失</title>
    <desc>Created with Sketch.</desc>
    <defs>
        <linearGradient x1="88.7136501%" y1="81.7972073%" x2="11.3438683%" y2="15.8357672%" id="linearGradient-1">
            <stop stop-color="#EC1B34" offset="0%"></stop>
            <stop stop-color="#FF2395" offset="100%"></stop>
        </linearGradient>
        <circle id="path-2" cx="12" cy="12" r="12"></circle>
        <linearGradient x1="58.8718175%" y1="2.99470417%" x2="63.7614981%" y2="100%" id="linearGradient-4">
            <stop stop-color="#FFFFFF" offset="0%"></stop>
            <stop stop-color="#FFACD7" offset="100%"></stop>
        </linearGradient>
    </defs>
    <g id="icon/我要挂失" stroke="none" stroke-width="1" fill="none" fill-rule="evenodd">
        <mask id="mask-3" fill="white">
            <use xlink:href="#path-2"></use>
        </mask>
        <use id="蒙版" fill="url(#linearGradient-1)" xlink:href="#path-2"></use>
        <path d="M20.9987473,11.7268741 L20.9992968,17.7301721 C20.1850177,16.5733346 18.839369,15.8174985 17.3171853,15.8174985 C14.8320769,15.8174985 12.8174985,17.8320769 12.8174985,20.3171853 C12.8174985,21.839369 13.5733346,23.1850177 14.7301721,23.9992968 L4.68,23.9987473 C3.75216162,23.9987473 3,23.2465856 3,22.3187473 L3,11.7268741 L20.9987473,11.7268741 Z M17.3171853,16.6356234 C19.3504558,16.6356234 20.9987473,18.2839148 20.9987473,20.3171853 C20.9987473,22.3504558 19.3504558,23.9987473 17.3171853,23.9987473 C15.2839148,23.9987473 13.6356234,22.3504558 13.6356234,20.3171853 C13.6356234,18.2839148 15.2839148,16.6356234 17.3171853,16.6356234 Z M15.33749,18.7317774 C14.9892863,19.1660167 14.7809982,19.7172769 14.7809982,20.3171853 C14.7809982,21.7178828 15.9164879,22.8533724 17.3171853,22.8533724 C17.7526021,22.8533724 18.1623913,22.7436476 18.5204107,22.5503402 L15.33749,18.7317774 Z M17.3171853,17.7809982 C16.9312154,17.7809982 16.5653828,17.8672169 16.2378969,18.0214453 L19.3803711,21.7924814 C19.6781148,21.3768307 19.8533724,20.8674748 19.8533724,20.3171853 C19.8533724,18.9164879 18.7178828,17.7809982 17.3171853,17.7809982 Z M11.9993736,15.8174985 L5.45437463,15.8174985 L5.35896398,15.8230026 C4.95207883,15.8702617 4.63624975,16.2160596 4.63624975,16.6356234 C4.63624975,17.0527045 4.94835227,17.3968902 5.35175078,17.4473739 L5.45437463,17.4537483 L11.9993736,17.4537483 L12.0947843,17.4482441 C12.5016694,17.4009851 12.8174985,17.0551871 12.8174985,16.6356234 C12.8174985,16.1837855 12.4512115,15.8174985 11.9993736,15.8174985 Z M19.3187473,6 C20.2465856,6 20.9987473,6.75216162 20.9987473,7.68 L20.9987473,10.0906244 L3,10.0906244 L3,7.68 C3,6.75216162 3.75216162,6 4.68,6 L19.3187473,6 Z" id="形状结合" fill="url(#linearGradient-4)" mask="url(#mask-3)"></path>
    </g>
</svg>