<?xml version="1.0" encoding="UTF-8"?>
<svg width="24px" height="24px" viewBox="0 0 24 24" version="1.1" xmlns="http://www.w3.org/2000/svg" xmlns:xlink="http://www.w3.org/1999/xlink">
    <!-- Generator: Sketch 63 (92445) - https://sketch.com -->
    <title>icon/我要申请</title>
    <desc>Created with Sketch.</desc>
    <defs>
        <linearGradient x1="22.5422546%" y1="13.2569514%" x2="89.2014607%" y2="81.3620985%" id="linearGradient-1">
            <stop stop-color="#19BEFF" offset="0%"></stop>
            <stop stop-color="#0093FF" offset="100%"></stop>
        </linearGradient>
        <circle id="path-2" cx="12" cy="12" r="12"></circle>
        <linearGradient x1="50%" y1="0%" x2="50%" y2="100%" id="linearGradient-4">
            <stop stop-color="#FFFFFF" offset="0%"></stop>
            <stop stop-color="#E5F4FF" offset="100%"></stop>
        </linearGradient>
    </defs>
    <g id="icon/我要申请" stroke="none" stroke-width="1" fill="none" fill-rule="evenodd">
        <mask id="mask-3" fill="white">
            <use xlink:href="#path-2"></use>
        </mask>
        <use id="蒙版" fill="url(#linearGradient-1)" xlink:href="#path-2"></use>
        <path d="M17.291826,6 C18.8395963,6.00889522 20.0903479,7.24411569 20.0814842,8.77263974 L20.0814842,8.77263974 L20.0814842,10.3099722 L14.8352491,18.0412626 C14.2053807,18.9388336 14.3583716,20.1562419 15.1772379,20.8761038 C15.2492298,20.9383052 15.3212217,20.9916114 15.3932355,21.0360224 C16.3559977,21.6580803 17.6518073,21.3914624 18.2816977,20.4317767 L18.2816977,20.4317767 L19.8744382,17.9879564 C19.8923867,17.961249 19.9194084,17.9523538 19.9463641,17.9523538 C20.0004294,17.9523538 20.0363705,17.9968516 20.0363705,18.0412626 L20.0363705,18.0412626 L20.0363705,22.2362555 C20.0363705,23.7646927 18.7856189,25 17.2378486,25 L17.2378486,25 L7.78953659,25 C6.25077357,24.9910831 5.00900722,23.7558843 5,22.2362555 L5,22.2362555 L5,8.77263974 C5,7.24411569 6.25077357,6.00889522 7.78953659,6 L7.78953659,6 Z M21.4761199,10.6388133 C21.6471473,10.4076895 21.9620925,10.345488 22.2050239,10.4965982 L22.2050239,10.4965982 L22.7719296,10.8787238 L22.7809368,10.8876191 C23.014883,11.0475594 23.0688604,11.3674836 22.9069061,11.5984989 L22.9069061,11.5984989 L17.2378486,19.8985192 L16.1220735,20.0229438 L15.8161355,18.9477288 Z M12.3337239,17.7835399 L8.34741315,17.7835399 C7.96047608,17.7835399 7.64553088,18.0945688 7.64553088,18.4766944 C7.64553088,18.8588417 7.96047608,19.1698706 8.34741315,19.1698706 L8.34741315,19.1698706 L12.3427311,19.1698706 C12.720683,19.1698706 13.0356062,18.8588417 13.0356062,18.4766944 C13.0356062,18.0945688 12.720683,17.7835399 12.3337239,17.7835399 L12.3337239,17.7835399 Z M14.0974039,14.2733346 L8.34741315,14.2733346 C7.96047608,14.2733346 7.64553088,14.5843636 7.64553088,14.9664891 L7.64553088,14.9664891 C7.65453811,15.3575316 7.9694833,15.6596654 8.34741315,15.6507484 L8.34741315,15.6507484 L14.0974039,15.6507484 C14.4843629,15.6507484 14.7903009,15.3397195 14.7903009,14.9664891 L14.7903009,14.9664891 C14.7903009,14.5755551 14.4753557,14.2733346 14.0974039,14.2733346 L14.0974039,14.2733346 Z M16.7339275,10.4165847 L8.34741315,10.4165847 C7.96047608,10.4165847 7.64553088,10.7276136 7.64553088,11.1097609 C7.64553088,11.4918865 7.96047608,11.8029154 8.34741315,11.8029154 L8.34741315,11.8029154 L16.7339275,11.8029154 C17.1208646,11.8029154 17.4358098,11.4918865 17.4358098,11.1097609 C17.4358098,10.7276136 17.1208646,10.4165847 16.7339275,10.4165847 L16.7339275,10.4165847 Z" id="形状结合" fill="url(#linearGradient-4)" mask="url(#mask-3)"></path>
    </g>
</svg>