<?xml version="1.0" encoding="UTF-8"?>
<svg width="24px" height="24px" viewBox="0 0 24 24" version="1.1" xmlns="http://www.w3.org/2000/svg" xmlns:xlink="http://www.w3.org/1999/xlink">
    <!-- Generator: Sketch 63 (92445) - https://sketch.com -->
    <title>icon/我的审批</title>
    <desc>Created with Sketch.</desc>
    <defs>
        <linearGradient x1="22.5422546%" y1="13.2569514%" x2="89.2014607%" y2="81.3620985%" id="linearGradient-1">
            <stop stop-color="#19BEFF" offset="0%"></stop>
            <stop stop-color="#0093FF" offset="100%"></stop>
        </linearGradient>
        <circle id="path-2" cx="12" cy="12" r="12"></circle>
        <linearGradient x1="50%" y1="0%" x2="50%" y2="100%" id="linearGradient-4">
            <stop stop-color="#FFFFFF" offset="0%"></stop>
            <stop stop-color="#E5F4FF" offset="100%"></stop>
        </linearGradient>
    </defs>
    <g id="icon/我的审批" stroke="none" stroke-width="1" fill="none" fill-rule="evenodd">
        <mask id="mask-3" fill="white">
            <use xlink:href="#path-2"></use>
        </mask>
        <use id="蒙版" fill="url(#linearGradient-1)" xlink:href="#path-2"></use>
        <path d="M20.4093951,23.1412392 C20.7959944,23.1412392 21.1093951,23.4546399 21.1093951,23.8412392 C21.1093951,24.195622 20.8460514,24.4884975 20.5043809,24.5348491 L20.4093951,24.5412392 L3.69301429,24.5412392 C3.30641496,24.5412392 2.99301429,24.2278386 2.99301429,23.8412392 C2.99301429,23.4868565 3.25635791,23.193981 3.59802844,23.1476294 L3.69301429,23.1412392 L20.4093951,23.1412392 Z M12.2078684,3.00178241 C14.7004974,3.10698192 16.8106974,5.30266258 16.8465445,7.85278796 C16.8800317,9.12667396 16.3972607,10.36639 15.5656376,11.3223546 C14.9777449,11.9605813 14.6311631,12.7380552 14.4925543,13.6257104 L18.9232573,13.6257104 C20.065645,13.6257104 21,14.5816445 21,15.7504532 L21,21.2909272 C21,21.6820481 20.6893549,22 20.3069558,22 L3.69301429,22 C3.31306477,22 3,21.6820481 3,21.2909272 L3,15.7504532 C3,14.5816445 3.93444459,13.6257104 5.07674269,13.6257104 L9.50744574,13.6257104 C9.36880703,12.7747008 8.95304028,11.9605813 8.36517751,11.253923 C7.56934175,10.3321283 7.15345551,9.16344183 7.15345551,7.96037142 C7.15345551,6.61557815 7.67201386,5.3393082 8.64230556,4.38325187 C9.6125674,3.42716498 10.8576571,2.96752075 12.2078684,3.00178241 Z" id="形状结合" fill="url(#linearGradient-4)" mask="url(#mask-3)"></path>
    </g>
</svg>