<?xml version="1.0" encoding="UTF-8"?>
<svg width="24px" height="24px" viewBox="0 0 24 24" version="1.1" xmlns="http://www.w3.org/2000/svg" xmlns:xlink="http://www.w3.org/1999/xlink">
    <!-- Generator: Sketch 63 (92445) - https://sketch.com -->
    <title>icon/员工卡管理</title>
    <desc>Created with Sketch.</desc>
    <defs>
        <linearGradient x1="92.9680895%" y1="91.618866%" x2="0%" y2="0%" id="linearGradient-1">
            <stop stop-color="#FFA029" offset="0%"></stop>
            <stop stop-color="#FFD594" offset="100%"></stop>
        </linearGradient>
        <circle id="path-2" cx="12" cy="12" r="12"></circle>
        <linearGradient x1="50%" y1="9.78416254%" x2="50%" y2="99.8865076%" id="linearGradient-4">
            <stop stop-color="#FFFFFF" offset="0%"></stop>
            <stop stop-color="#FFF2E0" offset="100%"></stop>
        </linearGradient>
    </defs>
    <g id="icon/员工卡管理" stroke="none" stroke-width="1" fill="none" fill-rule="evenodd">
        <mask id="mask-3" fill="white">
            <use xlink:href="#path-2"></use>
        </mask>
        <use id="蒙版" fill="url(#linearGradient-1)" xlink:href="#path-2"></use>
        <path d="M19.4703688,15.9480273 L14.5316137,15.9480273 C14.0952351,15.9486595 13.6769795,16.1227239 13.3690302,16.4318673 C13.0609873,16.7410107 12.8884683,17.159922 12.8893712,17.5962771 L12.8893712,22.5517737 C12.8878361,22.9883161 13.0601444,23.407602 13.368281,23.7169327 C13.676441,24.0261698 14.0950712,24.2000234 14.5316137,24.2000234 L19.4703688,24.2000234 C20.3816195,24.2000234 21.1212878,23.4630244 21.1245659,22.5517737 L21.1245659,17.5962771 C21.1212878,16.6850263 20.3816195,15.9480273 19.4703688,15.9480273 M9.5929522,15.9480273 L4.6422322,15.9480273 C4.20585366,15.9486595 3.78759805,16.1227239 3.47962537,16.4318673 C3.17158244,16.7410107 2.99908683,17.159922 2.99998969,17.5962771 L2.99998969,22.5517737 C2.99845463,22.9883161 3.17076293,23.407602 3.47889951,23.7169327 C3.7870361,24.0261698 4.20566634,24.2000234 4.6422322,24.2000234 L9.5929522,24.2000234 C10.0294244,24.1996722 10.4478673,24.0257015 10.7559102,23.716558 C11.0640468,23.407321 11.2364722,22.9882224 11.2351916,22.5517737 L11.2351916,17.5962771 C11.2360976,17.159922 11.063602,16.7410107 10.7556293,16.4318673 C10.4475863,16.1227239 10.0293307,15.9486595 9.5929522,15.9480273 M21.6640156,9.00631415 L18.1637151,5.50243122 C17.8554849,5.19384976 17.4372293,5.02041756 17.001038,5.02041756 C16.5648468,5.02041756 16.1464976,5.19384976 15.8382673,5.50243122 L12.3379668,9.00631415 C12.0334829,9.31709659 11.8615259,9.73399415 11.8584733,10.1690849 C11.8557659,10.6066576 12.0284488,11.0272078 12.3379668,11.3366088 L15.8382673,14.8440507 C16.4807883,15.485401 17.5212878,15.485401 18.1637151,14.8440507 L21.1844839,11.8221112 L21.6640156,11.3366088 C21.9746341,11.0284722 22.1494244,10.6090224 22.1494244,10.1714732 C22.1494244,9.73390049 21.9746341,9.31445073 21.6640156,9.00631415 M9.5929522,6.04546341 L4.6422322,6.04546341 C4.20585366,6.04609561 3.78759805,6.22016 3.47962537,6.52930341 C3.17158244,6.83844683 2.99908683,7.25735805 2.99998969,7.69371317 L2.99998969,12.6492098 C2.99845463,13.0857756 3.17076293,13.505038 3.47889951,13.8142751 C3.7870361,14.1236059 4.20566634,14.2973893 4.6422322,14.2973893 L9.5929522,14.2973893 C10.0294244,14.2971083 10.4478673,14.1231376 10.7559102,13.8139005 C11.0640468,13.5047571 11.2364722,13.085682 11.2351947,12.6492098 L11.2351947,7.69371317 C11.2367298,7.25707707 11.0644215,6.83790829 10.7562849,6.52857756 C10.4481483,6.21934049 10.029518,6.04546341 9.5929522,6.04546341" id="Fill-1" fill="url(#linearGradient-4)" mask="url(#mask-3)"></path>
    </g>
</svg>