<?xml version="1.0" encoding="UTF-8"?>
<svg width="24px" height="24px" viewBox="0 0 24 24" version="1.1" xmlns="http://www.w3.org/2000/svg" xmlns:xlink="http://www.w3.org/1999/xlink">
    <!-- Generator: Sketch 63 (92445) - https://sketch.com -->
    <title>icon/我要补卡</title>
    <desc>Created with Sketch.</desc>
    <defs>
        <linearGradient x1="0%" y1="-7.6569647%" x2="100%" y2="100%" id="linearGradient-1">
            <stop stop-color="#B8A9FF" offset="0%"></stop>
            <stop stop-color="#6E73FF" offset="100%"></stop>
        </linearGradient>
        <circle id="path-2" cx="12" cy="12" r="12"></circle>
        <linearGradient x1="50%" y1="0%" x2="50%" y2="100%" id="linearGradient-4">
            <stop stop-color="#FFFFFF" offset="0%"></stop>
            <stop stop-color="#E2DFFF" offset="100%"></stop>
        </linearGradient>
    </defs>
    <g id="icon/我要补卡" stroke="none" stroke-width="1" fill="none" fill-rule="evenodd">
        <mask id="mask-3" fill="white">
            <use xlink:href="#path-2"></use>
        </mask>
        <use id="蒙版" fill="url(#linearGradient-1)" xlink:href="#path-2"></use>
        <path d="M20.9987473,11.7268741 L20.9992968,17.7301721 C20.1850177,16.5733346 18.839369,15.8174985 17.3171853,15.8174985 C14.8320769,15.8174985 12.8174985,17.8320769 12.8174985,20.3171853 C12.8174985,21.839369 13.5733346,23.1850177 14.7301721,23.9992968 L4.68,23.9987473 C3.75216162,23.9987473 3,23.2465856 3,22.3187473 L3,11.7268741 L20.9987473,11.7268741 Z M17.3171853,16.6356234 C19.3504558,16.6356234 20.9987473,18.2839148 20.9987473,20.3171853 C20.9987473,22.3504558 19.3504558,23.9987473 17.3171853,23.9987473 C15.2839148,23.9987473 13.6356234,22.3504558 13.6356234,20.3171853 C13.6356234,18.2839148 15.2839148,16.6356234 17.3171853,16.6356234 Z M17.7916234,20.8606234 L17.7855912,22.8102055 C18.7827601,22.6240158 19.5745669,21.8543221 19.7931805,20.8689555 L17.7916234,20.8606234 Z M14.8376785,20.8528792 C15.0360557,21.7754752 15.7362973,22.5116362 16.6386184,22.7615772 L16.6456234,20.8576234 L14.8376785,20.8528792 Z M17.8025128,17.8273845 L17.7956234,19.7156234 L19.7832411,19.7224005 C19.5527376,18.7632448 18.7771873,18.0162652 17.8025128,17.8273845 Z M16.6556935,17.8681283 C15.7701329,18.1067334 15.076317,18.8128526 14.8552597,19.7054722 L16.6496234,19.7116234 L16.6556935,17.8681283 Z M11.9993736,15.8174985 L5.45437463,15.8174985 L5.35896398,15.8230026 C4.95207883,15.8702617 4.63624975,16.2160596 4.63624975,16.6356234 C4.63624975,17.0527045 4.94835227,17.3968902 5.35175078,17.4473739 L5.45437463,17.4537483 L11.9993736,17.4537483 L12.0947843,17.4482441 C12.5016694,17.4009851 12.8174985,17.0551871 12.8174985,16.6356234 C12.8174985,16.1837855 12.4512115,15.8174985 11.9993736,15.8174985 Z M19.3187473,6 C20.2465856,6 20.9987473,6.75216162 20.9987473,7.68 L20.9987473,10.0906244 L3,10.0906244 L3,7.68 C3,6.75216162 3.75216162,6 4.68,6 L19.3187473,6 Z" id="形状结合" fill="url(#linearGradient-4)" mask="url(#mask-3)"></path>
    </g>
</svg>