<?xml version="1.0" encoding="UTF-8"?>
<svg width="44px" height="44px" viewBox="0 0 44 44" version="1.1" xmlns="http://www.w3.org/2000/svg" xmlns:xlink="http://www.w3.org/1999/xlink">
    <!-- Generator: Sketch 63 (92445) - https://sketch.com -->
    <title>icon/工具/访客</title>
    <desc>Created with Sketch.</desc>
    <defs>
        <linearGradient x1="88.349698%" y1="91.7835403%" x2="10.9039522%" y2="0%" id="linearGradient-1">
            <stop stop-color="#5DE1FF" offset="0%"></stop>
            <stop stop-color="#4EEEE4" offset="100%"></stop>
        </linearGradient>
        <linearGradient x1="50%" y1="0%" x2="50%" y2="100%" id="linearGradient-2">
            <stop stop-color="#FFFFFF" offset="0%"></stop>
            <stop stop-color="#E5FBFF" offset="100%"></stop>
        </linearGradient>
        <linearGradient x1="50%" y1="0%" x2="50%" y2="100%" id="linearGradient-3">
            <stop stop-color="#FFFFFF" stop-opacity="0" offset="0%"></stop>
            <stop stop-color="#FFFFFF" offset="100%"></stop>
        </linearGradient>
        <linearGradient x1="50%" y1="0%" x2="50%" y2="100%" id="linearGradient-4">
            <stop stop-color="#FFFFFF" offset="0%"></stop>
            <stop stop-color="#E5FBFF" offset="100%"></stop>
        </linearGradient>
    </defs>
    <g id="icon/工具/访客" stroke="none" stroke-width="1" fill="none" fill-rule="evenodd">
        <g id="工作/icon/加班">
            <path d="M4.14336123e-16,15.3833112 L-4.14336123e-16,28.6166888 C2.4074122e-16,33.9658012 0.556953667,35.9055187 1.60279622,37.8610742 C2.64863878,39.8166298 4.18337022,41.3513612 6.13892578,42.3972038 C8.09448133,43.4430463 10.0341988,44 15.3833112,44 L28.6166888,44 C33.9658012,44 35.9055187,43.4430463 37.8610742,42.3972038 C39.8166298,41.3513612 41.3513612,39.8166298 42.3972038,37.8610742 C43.4430463,35.9055187 44,33.9658012 44,28.6166888 L44,15.3833112 C44,10.0341988 43.4430463,8.09448133 42.3972038,6.13892578 C41.3513612,4.18337022 39.8166298,2.64863878 37.8610742,1.60279622 C35.9055187,0.556953667 33.9658012,-3.61111829e-16 28.6166888,6.21504185e-16 L15.3833112,-6.21504185e-16 C10.0341988,3.61111829e-16 8.09448133,0.556953667 6.13892578,1.60279622 C4.18337022,2.64863878 2.64863878,4.18337022 1.60279622,6.13892578 C0.556953667,8.09448133 -2.4074122e-16,10.0341988 4.14336123e-16,15.3833112 Z" id="Rectangle-" fill="url(#linearGradient-1)"></path>
            <g id="Group-12" transform="translate(10.000000, 10.000000)">
                <path d="M20.4607085,22.998066 L1.10981619,22.998066 C0.5,22.998066 0.00497514094,22.5 -2.28927988e-13,21.9983577 C0.00497514094,21.0256348 0.00497514094,19.3643707 2.9454764,18.0427261 C4.80613552,17.2068841 8.19951181,15.8774926 8.19951181,15.8774926 L8.06671552,14.3748671 C8.06671552,14.3748671 5.50125254,13.7171216 5.10885238,11.1572352 C4.3183655,11.3503311 4.0574705,10.3731492 4.0108517,9.75106145 C3.96854588,9.15018156 3.55356432,7.27306711 4.51755997,7.44245519 C4.32031597,6.18910427 4.20785706,4.99812704 4.24823128,4.46027995 C4.32031597,3.5 4.5,3 5.10822056,2.48698846 C5.35903361,2.28551388 4.8913346,1.34514357 5.04358059,1.03642102 C5.32340333,0.46908357 7.40155278,0.728769852 7.72079686,0.59990196 C8.55034792,0.264724537 9.50882185,0.0483055839 10.5754778,0.00190655034 C14.9158619,0.162091732 16.6353185,2.35674701 16.8763518,4.45854926 C16.9467332,5.05742376 16.791905,6.18841748 16.5944687,7.43957071 C17.5591236,7.27240781 17.1398291,9.14636303 17.092963,9.74749017 C17.0503001,10.3696329 16.7833064,11.3433808 15.9951821,11.1508344 C15.6010787,13.7104735 13.5027653,14.3647027 13.5027653,14.3647027 L13.3713151,15.8579056 C13.3713151,15.8579056 16.7642519,17.2070764 18.6251857,18.0431657 C21.5654672,19.3643158 21.5654672,21.9983577 21.5654672,21.9983577 C21.5650002,22.5515749 21.0705441,22.998066 20.4607085,22.998066 Z" id="Shape" fill="url(#linearGradient-2)" fill-rule="nonzero"></path>
                <circle id="椭圆形" fill="url(#linearGradient-3)" opacity="0.435849144" cx="20.5" cy="21.5" r="7.5"></circle>
                <circle id="Oval-2" stroke="#55E9F0" fill="url(#linearGradient-4)" fill-rule="nonzero" cx="19.5" cy="18.5" r="6.5"></circle>
                <g id="Group-11" transform="translate(19.000000, 16.000000)" fill="#54E8EF">
                    <path d="M0.5,4 C0.223857625,4 3.38176876e-17,3.77614237 0,3.5 L0,0.5 C-3.38176876e-17,0.223857625 0.223857625,5.07265313e-17 0.5,0 C0.776142375,-5.07265313e-17 1,0.223857625 1,0.5 L1,3 L3.5,3 C3.77614237,3 4,3.22385763 4,3.5 C4,3.77614237 3.77614237,4 3.5,4 L0.5,4 Z" id="Combined-Shape"></path>
                </g>
            </g>
        </g>
    </g>
</svg>