<?xml version="1.0" encoding="UTF-8"?>
<svg width="20px" height="20px" viewBox="0 0 20 20" version="1.1" xmlns="http://www.w3.org/2000/svg" xmlns:xlink="http://www.w3.org/1999/xlink">
    <!-- Generator: Sketch 63 (92445) - https://sketch.com -->
    <title>icon/20/删除备份</title>
    <desc>Created with Sketch.</desc>
    <defs>
        <linearGradient x1="97.8318294%" y1="45.7679158%" x2="2.95236851%" y2="45.7679158%" id="linearGradient-1">
            <stop stop-color="#FFA422" offset="0%"></stop>
            <stop stop-color="#FFC800" offset="100%"></stop>
        </linearGradient>
    </defs>
    <g id="icon/20/删除备份" stroke="none" stroke-width="1" fill="none" fill-rule="evenodd">
        <path d="M17.5976518,10.912288 C17.9531036,10.5522097 18.0811396,10.106828 17.9492847,9.68966677 C17.8173409,9.27485978 17.4604978,8.99302217 16.970882,8.91942886 L13.5522157,8.40289984 C13.3877967,8.37709479 13.1164787,8.17120475 13.042943,8.01701652 L11.5142961,4.79221092 C11.294607,4.32882073 10.9254783,4.06425783 10.5002506,4.06425783 C10.0751709,4.06425783 9.70604219,4.32882073 9.48632344,4.79221092 L7.95699566,8.01701652 C7.88346004,8.17203026 7.6128525,8.37779801 7.44843348,8.40204375 L4.02976718,8.91942886 C3.5386416,8.99384769 3.18096954,9.27559357 3.050654,9.69122608 C2.91871026,10.1083873 3.04751601,10.5537384 3.40219809,10.912288 L5.87585468,13.4216761 C5.9956313,13.5437303 6.10019161,13.8802966 6.0721865,14.0532272 L5.48786843,17.5958568 C5.42114166,17.9989231 5.50302553,18.3660641 5.7197247,18.6305964 C5.91457634,18.8685288 6.1933841,19 6.50493357,19 C6.70949522,19 6.92018484,18.942917 7.13019358,18.8278033 L10.1880498,17.1544192 C10.2965178,17.0949514 10.7034505,17.0949514 10.8118001,17.1544192 L13.8704556,18.8278033 C14.3948854,19.1143188 14.9565566,19.025805 15.2800956,18.6305964 C15.4961139,18.3660641 15.5779977,17.9989231 15.511271,17.5958568 L14.9277522,14.0540833 C14.8996583,13.8802966 15.0035081,13.5437303 15.1239952,13.4216761 L17.5976518,10.912288 Z M5.58710007,6.90318011 C6.00569657,6.90318011 6.34498471,6.55276344 6.34498471,6.12052887 L6.34498471,1.99404473 C6.34498471,1.56181016 6.00569657,1.21127119 5.58710007,1.21127119 C5.16859239,1.21127119 4.82930425,1.56181016 4.82930425,1.99404473 L4.82930425,6.12052887 C4.82930425,6.55276344 5.16859239,6.90318011 5.58710007,6.90318011 L5.58710007,6.90318011 Z M8.61857942,4.55501238 C9.0370871,4.55501238 9.37637525,4.20459572 9.37637525,3.77239172 L9.37637525,1.99404473 C9.37637525,1.56181016 9.0370871,1.21127119 8.61857942,1.21127119 C8.19995333,1.21127119 7.86066518,1.56181016 7.86066518,1.99404473 L7.86066518,3.77239172 C7.86066518,4.20459572 8.19995333,4.55501238 8.61857942,4.55501238 L8.61857942,4.55501238 Z M12.4078546,4.55501238 C12.8263623,4.55501238 13.1656504,4.20459572 13.1656504,3.77239172 L13.1656504,1.99404473 C13.1656504,1.56181016 12.8263623,1.21127119 12.4078546,1.21127119 C11.9892285,1.21127119 11.6499404,1.56181016 11.6499404,1.99404473 L11.6499404,3.77239172 C11.6499404,4.20459572 11.9892285,4.55501238 12.4078546,4.55501238 L12.4078546,4.55501238 Z M15.4392155,6.6903496 C15.8578416,6.6903496 16.1971298,6.33993294 16.1971298,5.90760665 L16.1971298,1.78274296 C16.1971298,1.35041667 15.8578416,1 15.4392155,1 C15.0207375,1 14.6814493,1.35041667 14.6814493,1.78274296 L14.6814493,5.90760665 C14.6814493,6.33993294 15.0207375,6.6903496 15.4392155,6.6903496 L15.4392155,6.6903496 Z" id="Fill-1" fill="url(#linearGradient-1)"></path>
    </g>
</svg>