<?xml version="1.0" encoding="UTF-8"?>
<svg width="24px" height="24px" viewBox="0 0 24 24" version="1.1" xmlns="http://www.w3.org/2000/svg" xmlns:xlink="http://www.w3.org/1999/xlink">
    <!-- Generator: Sketch 63 (92445) - https://sketch.com -->
    <title>icon/访客预约备份</title>
    <desc>Created with Sketch.</desc>
    <defs>
        <linearGradient x1="50%" y1="0%" x2="50%" y2="100%" id="linearGradient-1">
            <stop stop-color="#0099FF" offset="0%"></stop>
            <stop stop-color="#0099FF" stop-opacity="0" offset="100%"></stop>
        </linearGradient>
    </defs>
    <g id="icon/访客预约备份" stroke="none" stroke-width="1" fill="none" fill-rule="evenodd">
        <circle id="椭圆形" fill="url(#linearGradient-1)" opacity="0.300037202" cx="16.5" cy="15.5" r="7.5"></circle>
        <rect id="矩形" stroke="#0099FF" stroke-width="1.4" stroke-linecap="round" stroke-linejoin="round" x="3" y="3" width="18" height="19" rx="3"></rect>
        <path d="M11.004,18.32 C11.796,17.456 12.42,16.508 12.864,15.476 C13.176,14.708 13.404,13.88 13.524,12.968 L15.66,12.968 C15.636,14.888 15.6,16.064 15.528,16.496 C15.432,16.844 15.216,17.024 14.88,17.036 C14.448,17.036 13.92,17.012 13.296,16.976 L13.668,18.104 C14.172,18.14 14.628,18.164 15.024,18.164 C15.816,18.152 16.32,17.84 16.548,17.24 C16.74,16.52 16.86,14.708 16.908,11.78 L13.632,11.78 C13.656,11.084 13.68,10.508 13.704,10.064 L17.604,10.064 L17.604,8.852 L14.616,8.852 C14.4,8.3 14.1,7.688 13.728,7.028 L12.516,7.364 C12.816,7.844 13.092,8.336 13.332,8.852 L10.308,8.852 L10.308,10.064 L12.432,10.064 C12.42,10.424 12.408,10.904 12.384,11.516 C12.336,12.632 12.18,13.628 11.892,14.516 C11.604,15.404 10.992,16.388 10.08,17.444 L11.004,18.32 Z M9.156,9.908 L10.02,9.032 C9.492,8.456 8.832,7.88 8.064,7.292 L7.2,8.12 C8.04,8.744 8.7,9.344 9.156,9.908 Z M8.184,17.924 C9.036,17.348 9.84,16.7 10.608,15.98 L10.26,14.672 C9.9,15.02 9.564,15.344 9.24,15.644 L9.24,10.712 L6.468,10.712 L6.468,11.912 L8.016,11.912 L8.016,16.1 C8.016,16.376 7.908,16.604 7.704,16.796 L8.184,17.924 Z" id="访" fill="#0099FF" fill-rule="nonzero"></path>
    </g>
</svg>