<?xml version="1.0" encoding="UTF-8"?>
<svg width="70px" height="70px" viewBox="0 0 70 70" version="1.1" xmlns="http://www.w3.org/2000/svg" xmlns:xlink="http://www.w3.org/1999/xlink">
    <!-- Generator: Sketch 63 (92445) - https://sketch.com -->
    <title>icon/章/已完成备份</title>
    <desc>Created with Sketch.</desc>
    <g id="icon/章/已完成备份" stroke="none" stroke-width="1" fill="none" fill-rule="evenodd">
        <g id="编组-5">
            <circle id="椭圆形" stroke="#E2E2E2" stroke-width="3" cx="35" cy="35" r="33.5"></circle>
            <path d="M55,17.0906124 C50.0827899,11.5142993 42.9058233,8 34.9128642,8 C27.0138258,8 19.9117159,11.4321955 15,16.8948967 M15.0637456,53.1757499 C19.9730615,58.5973794 27.0479321,62 34.9128642,62 C42.8337869,62 49.9533592,58.5487603 54.8665017,53.0596532" id="形状" stroke="#E2E2E2" stroke-width="2" stroke-linecap="round"></path>
            <path d="M22.3286978,16 L23.357322,18.0842203 L25.6573956,18.4184405 L23.9930467,20.0407797 L24.3859462,22.3315595 L22.3286978,21.25 L20.2714494,22.3315595 L20.6643489,20.0407797 L19,18.4184405 L21.3000736,18.0842203 L22.3286978,16 Z M47.3286978,15 L48.357322,17.0842203 L50.6573956,17.4184405 L48.9930467,19.0407797 L49.3859462,21.3315595 L47.3286978,20.25 L45.2714494,21.3315595 L45.6643489,19.0407797 L44,17.4184405 L46.3000736,17.0842203 L47.3286978,15 Z M34.8286978,12 L35.857322,14.0842203 L38.1573956,14.4184405 L36.4930467,16.0407797 L36.8859462,18.3315595 L34.8286978,17.25 L32.7714494,18.3315595 L33.1643489,16.0407797 L31.5,14.4184405 L33.8000736,14.0842203 L34.8286978,12 Z" id="形状结合" fill="#D8D8D8"></path>
            <path d="M22.3286978,52 L23.357322,54.0842203 L25.6573956,54.4184405 L23.9930467,56.0407797 L24.3859462,58.3315595 L22.3286978,57.25 L20.2714494,58.3315595 L20.6643489,56.0407797 L19,54.4184405 L21.3000736,54.0842203 L22.3286978,52 Z M47.3286978,51 L48.357322,53.0842203 L50.6573956,53.4184405 L48.9930467,55.0407797 L49.3859462,57.3315595 L47.3286978,56.25 L45.2714494,57.3315595 L45.6643489,55.0407797 L44,53.4184405 L46.3000736,53.0842203 L47.3286978,51 Z M34.8286978,48 L35.857322,50.0842203 L38.1573956,50.4184405 L36.4930467,52.0407797 L36.8859462,54.3315595 L34.8286978,53.25 L32.7714494,54.3315595 L33.1643489,52.0407797 L31.5,50.4184405 L33.8000736,50.0842203 L34.8286978,48 Z" id="形状结合" fill="#D8D8D8" transform="translate(34.828698, 53.165780) scale(1, -1) translate(-34.828698, -53.165780) "></path>
            <text id="已撤回" font-family="PingFangSC-Medium, PingFang SC" font-size="16" font-weight="400" fill="#E2E2E2">
                <tspan x="11" y="41">已撤回</tspan>
            </text>
        </g>
    </g>
</svg>