<?xml version="1.0" encoding="UTF-8"?>
<svg width="20px" height="20px" viewBox="0 0 20 20" version="1.1" xmlns="http://www.w3.org/2000/svg" xmlns:xlink="http://www.w3.org/1999/xlink">
    <!-- Generator: Sketch 63 (92445) - https://sketch.com -->
    <title>icon/20/评论备份 2</title>
    <desc>Created with Sketch.</desc>
    <g id="icon/20/评论备份-2" stroke="none" stroke-width="1" fill="none" fill-rule="evenodd" stroke-linecap="round" stroke-linejoin="round">
        <path d="M13.4984315,2 L17,2 C17.5522847,2 18,2.44771525 18,3 L18,5.98992598 L18,5.98992598 M18,14.063568 L18,17 C18,17.5522847 17.5522847,18 17,18 L13.5362077,18 L13.5362077,18 M5.50081467,18 L3,18 C2.44771525,18 2,17.5522847 2,17 L2,14.066174 L2,14.066174 M2,6.01826635 L2,3 C2,2.44771525 2.44771525,2 3,2 L5.5549873,2 L5.5549873,2" id="形状" stroke="#333333" stroke-width="1.4"></path>
        <line x1="0.920168448" y1="9.34421178" x2="18.7318265" y2="9.34421178" id="路径-24" stroke="#333333" stroke-width="1.4"></line>
    </g>
</svg>