<?xml version="1.0" encoding="UTF-8"?>
<svg width="24px" height="24px" viewBox="0 0 24 24" version="1.1" xmlns="http://www.w3.org/2000/svg" xmlns:xlink="http://www.w3.org/1999/xlink">
    <!-- Generator: Sketch 63 (92445) - https://sketch.com -->
    <title>icon/我的审批</title>
    <desc>Created with Sketch.</desc>
    <g id="icon/我的审批" stroke="none" stroke-width="1" fill="none" fill-rule="evenodd" stroke-linecap="round" stroke-linejoin="round">
        <path d="M20.3069558,19 L3.69301429,19 C3.31306478,19 3,18.6820481 3,18.2909272 L3,14.7504532 C3,13.5816445 3.93444459,12.6257104 5.07674269,12.6257104 L9.50744574,12.6257104 C9.36880704,11.7747008 8.95304028,10.9605813 8.36517752,10.253923 C7.56934176,9.33212831 7.15345551,8.16344183 7.15345551,6.96037142 C7.15345551,5.61557815 7.67201386,4.3393082 8.64230557,3.38325187 C9.6125674,2.42716498 10.8576571,1.96752075 12.2078684,2.00178241 C14.7004974,2.10698192 16.8106974,4.30266258 16.8465445,6.85278796 C16.8800317,8.12667396 16.3972607,9.36638998 15.5656376,10.3223546 C14.9777449,10.9605813 14.6311631,11.7380552 14.4925543,12.6257104 L18.9232573,12.6257104 C20.065645,12.6257104 21,13.5816445 21,14.7504532 L21,18.2909272 C21,18.6820481 20.6893549,19 20.3069558,19 Z" id="路径" stroke="#000000" stroke-width="1.4"></path>
        <line x1="3" y1="21.8412392" x2="21.4093951" y2="21.8412392" id="路径-20" stroke="#000000" stroke-width="1.4"></line>
    </g>
</svg>