<?xml version="1.0" encoding="UTF-8"?>
<svg width="24px" height="24px" viewBox="0 0 24 24" version="1.1" xmlns="http://www.w3.org/2000/svg" xmlns:xlink="http://www.w3.org/1999/xlink">
    <!-- Generator: Sketch 63 (92445) - https://sketch.com -->
    <title>icon/日程备份 7</title>
    <desc>Created with Sketch.</desc>
    <defs>
        <linearGradient x1="50%" y1="0%" x2="50%" y2="100%" id="linearGradient-1">
            <stop stop-color="#0099FF" offset="0%"></stop>
            <stop stop-color="#0099FF" stop-opacity="0" offset="100%"></stop>
        </linearGradient>
    </defs>
    <g id="icon/日程备份-7" stroke="none" stroke-width="1" fill="none" fill-rule="evenodd">
        <path d="M3,16.91439 L3,7 C3,4.790861 4.790861,3 7,3 L17,3 C19.209139,3 21,4.790861 21,7 L21,17 C21,19.209139 19.209139,21 17,21 L9,21" id="路径" stroke="#0099FF" stroke-width="1.4" stroke-linecap="round" stroke-linejoin="round"></path>
        <path d="M11.5008076,6 C9.56888496,6.00187612 8.00279924,7.56715501 8,9.49923007 C8.02861777,9.94452544 8.39808773,10.2910714 8.84429858,10.2910714 C9.29050943,10.2910714 9.65997939,9.94452544 9.68856738,9.49923007 C9.73115157,8.53011035 10.5291436,7.76632143 11.4991697,7.76632143 C12.4691066,7.76632143 13.2670688,8.53011035 13.309653,9.49923007 C13.309653,10.1503327 12.9615049,10.7491721 12.4009421,11.0643005 C12.3580005,11.0879158 12.3171733,11.1153726 12.2790262,11.1460755 C11.2671008,11.7878571 10.653144,12.9021527 10.6512977,14.100427 C10.6512977,14.1648702 10.6547818,14.2536434 10.6809577,14.3563534 C10.79391,14.7790758 11.2104608,15.0459314 11.641663,14.9718396 C12.0728949,14.8976287 12.3763743,14.506979 12.3417113,14.0707664 C12.3537123,13.4375911 12.695577,12.85656 13.2434539,12.5388705 L13.250452,12.5336293 C13.2652225,12.5246656 13.2797547,12.5154637 13.2939594,12.505696 L13.3114099,12.4936054 C14.36181,11.862068 15.0031041,10.7248421 14.9999887,9.49923007 C14.9971781,7.56786972 13.4321346,6.00279929 11.5008076,6 Z M10.4807524,16.985094 C10.4807524,17.3476913 10.6741978,17.6827125 10.9881594,17.8640707 C11.3022402,18.0453098 11.689131,18.0453098 12.0030926,17.8640707 C12.3171733,17.6827125 12.5106187,17.3476913 12.5106187,16.985094 C12.4880461,16.4413769 12.0406739,16.0121327 11.4964896,16.0121327 C10.9523351,16.0121327 10.5049629,16.4413769 10.4825094,16.985094 L10.4807524,16.985094 Z" id="Fill-3" fill="#0099FF"></path>
        <circle id="椭圆形" fill="url(#linearGradient-1)" opacity="0.300037202" cx="16.5" cy="15.5" r="7.5"></circle>
    </g>
</svg>