<?xml version="1.0" encoding="UTF-8"?>
<svg width="26px" height="26px" viewBox="0 0 26 26" version="1.1" xmlns="http://www.w3.org/2000/svg" xmlns:xlink="http://www.w3.org/1999/xlink">
    <!-- Generator: Sketch 63 (92445) - https://sketch.com -->
    <title>icon/编辑备份 7</title>
    <desc>Created with Sketch.</desc>
    <g id="icon/编辑备份-7" stroke="none" stroke-width="1" fill="none" fill-rule="evenodd">
        <circle id="椭圆形" stroke="#000000" stroke-width="1.4" cx="13" cy="13" r="12.3"></circle>
        <path d="M8.5,7 C9.6045695,7 10.5,7.8954305 10.5,9 C10.5,10.1045695 9.6045695,11 8.5,11 C7.3954305,11 6.5,10.1045695 6.5,9 C6.5,7.8954305 7.3954305,7 8.5,7 Z M17.5,7 C18.6045695,7 19.5,7.8954305 19.5,9 C19.5,10.1045695 18.6045695,11 17.5,11 C16.3954305,11 15.5,10.1045695 15.5,9 C15.5,7.8954305 16.3954305,7 17.5,7 Z" id="形状结合" fill="#000000"></path>
        <path d="M20.5,14 C20.2423137,17.9091799 16.9829373,21.0003468 13,21.0003468 C9.01706268,21.0003468 5.75768628,17.9091799 5.5,14 Z" id="形状结合" stroke="#000000" stroke-width="1.4" stroke-linecap="round" stroke-linejoin="round"></path>
    </g>
</svg>