<?xml version="1.0" encoding="UTF-8"?>
<svg width="20px" height="20px" viewBox="0 0 20 20" version="1.1" xmlns="http://www.w3.org/2000/svg" xmlns:xlink="http://www.w3.org/1999/xlink">
    <!-- Generator: Sketch 63 (92445) - https://sketch.com -->
    <title>icon/20/评论备份</title>
    <desc>Created with Sketch.</desc>
    <defs>
        <linearGradient x1="97.8318294%" y1="45.7679158%" x2="0%" y2="45.7679158%" id="linearGradient-1">
            <stop stop-color="#EC1B34" offset="0%"></stop>
            <stop stop-color="#FF2395" offset="100%"></stop>
        </linearGradient>
    </defs>
    <g id="icon/20/评论备份" stroke="none" stroke-width="1" fill="none" fill-rule="evenodd">
        <path d="M13.3255225,4.08603812 C12.161173,3.27385927 13.8244533,6.35998066 12.9928025,7.09092497 C11.578945,2.05571591 8.1690659,1 8.1690659,1 C8.58489129,3.59883907 6.67199641,6.44123602 4.84231351,8.6340273 C4.84231351,7.65944184 4.59280549,6.68487718 4.17698009,5.87278161 C4.01057745,7.74061392 2.51361456,9.28371625 2.09778917,11.1515486 C1.59875179,13.6691323 3.02912605,15.7447949 5.94460484,17.4733669 C7.63318671,18.4079976 11.1667484,17.9771065 12.8305499,17.1259147 C21.2629156,13.2821998 14.489872,4.89821696 13.3255225,4.08603812 Z" id="Fill-1" fill="url(#linearGradient-1)"></path>
        <path d="M8.024,14.0784 C8.09866667,14.0746667 8.15373333,14.0522667 8.1892,14.0112 C8.22466667,13.9701333 8.2424,13.9178667 8.2424,13.8544 L8.2424,13.8544 L8.2424,10.3488 C8.2424,10.2853333 8.22373333,10.2330667 8.1864,10.192 C8.14906667,10.1509333 8.09306667,10.1304 8.0184,10.1304 C7.93626667,10.1304 7.87933333,10.15 7.8476,10.1892 C7.81586667,10.2284 7.8,10.2816 7.8,10.3488 L7.8,10.3488 L7.8,11.8608 L5.7504,11.8608 L5.7504,10.3488 C5.7504,10.2853333 5.73266667,10.2330667 5.6972,10.192 C5.66173333,10.1509333 5.60666667,10.1304 5.532,10.1304 C5.45733333,10.1304 5.40133333,10.1509333 5.364,10.192 C5.32666667,10.2330667 5.308,10.2853333 5.308,10.3488 L5.308,10.3488 L5.308,13.8544 C5.308,13.9178667 5.32666667,13.9710667 5.364,14.014 C5.40133333,14.0569333 5.45733333,14.0784 5.532,14.0784 C5.60666667,14.0746667 5.66173333,14.0522667 5.6972,14.0112 C5.73266667,13.9701333 5.7504,13.9178667 5.7504,13.8544 L5.7504,13.8544 L5.7504,12.2416 L7.8,12.2416 L7.8,13.8544 C7.8,13.9178667 7.81866667,13.9710667 7.856,14.014 C7.89333333,14.0569333 7.94933333,14.0784 8.024,14.0784 Z M10.4948,14.1344 C10.7822667,14.1344 11.0314667,14.0802667 11.2424,13.972 C11.4533333,13.8637333 11.6288,13.7162667 11.7688,13.5296 C11.9088,13.3429333 12.0133333,13.1273333 12.0824,12.8828 C12.1514667,12.6382667 12.186,12.3778667 12.186,12.1016 C12.186,11.8290667 12.1505333,11.5696 12.0796,11.3232 C12.0086667,11.0768 11.9032,10.8612 11.7632,10.6764 C11.6232,10.4916 11.4477333,10.3450667 11.2368,10.2368 C11.0258667,10.1285333 10.7785333,10.0744 10.4948,10.0744 C10.2073333,10.0744 9.9572,10.1285333 9.7444,10.2368 C9.5316,10.3450667 9.3552,10.4916 9.2152,10.6764 C9.0752,10.8612 8.9716,11.0768 8.9044,11.3232 C8.8372,11.5696 8.8036,11.8290667 8.8036,12.1016 C8.8036,12.3778667 8.83906667,12.6392 8.91,12.8856 C8.98093333,13.132 9.0864,13.3476 9.2264,13.5324 C9.3664,13.7172 9.5428,13.8637333 9.7556,13.972 C9.9684,14.0802667 10.2148,14.1344 10.4948,14.1344 Z M10.4948,13.7312 C10.2745333,13.7312 10.0850667,13.6854667 9.9264,13.594 C9.76773333,13.5025333 9.638,13.3802667 9.5372,13.2272 C9.4364,13.0741333 9.36173333,12.9005333 9.3132,12.7064 C9.26466667,12.5122667 9.2404,12.3106667 9.2404,12.1016 C9.2404,11.8888 9.26466667,11.6844 9.3132,11.4884 C9.36173333,11.2924 9.43733333,11.1188 9.54,10.9676 C9.64266667,10.8164 9.77333333,10.6950667 9.932,10.6036 C10.0906667,10.5121333 10.2782667,10.4664 10.4948,10.4664 C10.7113333,10.4664 10.8989333,10.5121333 11.0576,10.6036 C11.2162667,10.6950667 11.3469333,10.8173333 11.4496,10.9704 C11.5522667,11.1234667 11.6278667,11.2989333 11.6764,11.4968 C11.7249333,11.6946667 11.7492,11.9018667 11.7492,12.1184 C11.7492,12.3573333 11.7230667,12.5757333 11.6708,12.7736 C11.6185333,12.9714667 11.5401333,13.1413333 11.4356,13.2832 C11.3310667,13.4250667 11.2004,13.5352 11.0436,13.6136 C10.8868,13.692 10.7038667,13.7312 10.4948,13.7312 Z M13.9064,14.0784 C13.9922667,14.0784 14.0501333,14.0597333 14.08,14.0224 C14.1098667,13.9850667 14.1248,13.9290667 14.1248,13.8544 L14.1248,13.8544 L14.1248,10.5952 L15.0264,10.5952 C15.0786667,10.5952 15.1281333,10.5812 15.1748,10.5532 C15.2214667,10.5252 15.2448,10.4738667 15.2448,10.3992 C15.2448,10.332 15.2242667,10.2806667 15.1832,10.2452 C15.1421333,10.2097333 15.0898667,10.192 15.0264,10.192 L15.0264,10.192 L12.7864,10.192 C12.7229333,10.192 12.6706667,10.2078667 12.6296,10.2396 C12.5885333,10.2713333 12.568,10.3226667 12.568,10.3936 C12.568,10.4682667 12.5876,10.5205333 12.6268,10.5504 C12.666,10.5802667 12.7192,10.5952 12.7864,10.5952 L12.7864,10.5952 L13.688,10.5952 L13.688,13.8544 C13.688,13.9253333 13.7029333,13.9804 13.7328,14.0196 C13.7626667,14.0588 13.8205333,14.0784 13.9064,14.0784 Z" id="HOT" fill="#FFFFFF" fill-rule="nonzero"></path>
    </g>
</svg>