<?xml version="1.0" encoding="UTF-8"?>
<svg width="20px" height="20px" viewBox="0 0 20 20" version="1.1" xmlns="http://www.w3.org/2000/svg" xmlns:xlink="http://www.w3.org/1999/xlink">
    <!-- Generator: Sketch 63 (92445) - https://sketch.com -->
    <title>icon/20/点赞备份 3</title>
    <desc>Created with Sketch.</desc>
    <g id="icon/20/点赞备份-3" stroke="none" stroke-width="1" fill="none" fill-rule="evenodd">
        <path d="M19,8.03515361 C19,5.25940946 16.7758916,3 14.045983,3 C12.6975562,3 11.4213481,3.56983845 10.5000416,4.54186074 C9.5773638,3.56983845 8.29995063,3 6.95401705,3 C4.22290336,3 2,5.25812732 2,8.03515361 C2,8.12832219 2.00885073,8.2114779 2.01647565,8.27975676 C2.01516674,8.30210257 2.01396171,8.32442802 2.01396171,8.34805597 C2.01396171,8.83958234 2.13560724,9.37960602 2.37511702,9.95318913 C2.38274194,9.9742528 2.39036686,9.99411574 2.39921759,10.0127169 C3.90857794,13.5594321 9.71930783,17.6399639 9.96644253,17.8274204 C10.1198136,17.9428533 10.3022715,18 10.4860798,18 C10.6723398,18 10.856169,17.9403705 11.0106827,17.8224953 C11.2223522,17.6611089 16.1788832,14.1665543 18.1458219,10.8606365 C18.2205752,10.7489482 18.2763181,10.6409231 18.3257451,10.5477341 C18.3410157,10.5180211 18.3548943,10.4882064 18.3713492,10.4596534 L18.3777691,10.4459773 C18.3841058,10.4348654 18.3916477,10.4223697 18.3992726,10.4124382 C18.517116,10.1877794 18.6108589,9.97917783 18.6856746,9.77558269 C18.8897191,9.25177905 18.9898611,8.78495925 18.9898611,8.34923635 C18.9898611,8.31569729 18.988573,8.28596393 18.9860383,8.2610742 C18.9924582,8.2039886 19,8.12704006 19,8.03515361 Z" id="Fill-1" fill="#FF1949"></path>
    </g>
</svg>