<?xml version="1.0" encoding="UTF-8"?>
<svg width="44px" height="44px" viewBox="0 0 44 44" version="1.1" xmlns="http://www.w3.org/2000/svg" xmlns:xlink="http://www.w3.org/1999/xlink">
    <!-- Generator: Sketch 63 (92445) - https://sketch.com -->
    <title>icon/工具/智能停车场</title>
    <desc>Created with Sketch.</desc>
    <defs>
        <linearGradient x1="81.8860373%" y1="80.3095796%" x2="0%" y2="29.5808835%" id="linearGradient-1">
            <stop stop-color="#21A1FF" offset="0%"></stop>
            <stop stop-color="#60DFFF" offset="100%"></stop>
        </linearGradient>
        <linearGradient x1="9.16193182%" y1="8.54048295%" x2="100%" y2="100%" id="linearGradient-2">
            <stop stop-color="#FFFFFF" stop-opacity="0.5" offset="0%"></stop>
            <stop stop-color="#000000" stop-opacity="0" offset="100%"></stop>
        </linearGradient>
        <path d="M4.14336123e-16,15.3833112 L-4.14336123e-16,28.6166888 C2.4074122e-16,33.9658012 0.556953667,35.9055187 1.60279622,37.8610742 C2.64863878,39.8166298 4.18337022,41.3513612 6.13892578,42.3972038 C8.09448133,43.4430463 10.0341988,44 15.3833112,44 L28.6166888,44 C33.9658012,44 35.9055187,43.4430463 37.8610742,42.3972038 C39.8166298,41.3513612 41.3513612,39.8166298 42.3972038,37.8610742 C43.4430463,35.9055187 44,33.9658012 44,28.6166888 L44,15.3833112 C44,10.0341988 43.4430463,8.09448133 42.3972038,6.13892578 C41.3513612,4.18337022 39.8166298,2.64863878 37.8610742,1.60279622 C35.9055187,0.556953667 33.9658012,-3.61111829e-16 28.6166888,6.21504185e-16 L15.3833112,-6.21504185e-16 C10.0341988,3.61111829e-16 8.09448133,0.556953667 6.13892578,1.60279622 C4.18337022,2.64863878 2.64863878,4.18337022 1.60279622,6.13892578 C0.556953667,8.09448133 -2.4074122e-16,10.0341988 4.14336123e-16,15.3833112 Z" id="path-3"></path>
        <linearGradient x1="41.6183726%" y1="100%" x2="41.6183726%" y2="0%" id="linearGradient-4">
            <stop stop-color="#DBF0FF" offset="0%"></stop>
            <stop stop-color="#FFFFFF" offset="100%"></stop>
        </linearGradient>
    </defs>
    <g id="icon/工具/智能停车场" stroke="none" stroke-width="1" fill="none" fill-rule="evenodd">
        <g id="Rectangle-">
            <use fill="url(#linearGradient-1)" xlink:href="#path-3"></use>
            <use fill="url(#linearGradient-2)" style="mix-blend-mode: soft-light;" xlink:href="#path-3"></use>
        </g>
        <g id="编组" transform="translate(10.000000, 7.000000)">
            <path d="M6.14613487,28.5452928 C6.14613487,29.861568 8.70676207,30.928512 11.8656229,30.928512 C15.0244837,30.928512 17.5851109,29.861568 17.5851109,28.5452928 C17.5851109,27.2292096 15.0244837,26.1622656 11.8656229,26.1622656 C8.70676207,26.1622656 6.14613487,27.2292096 6.14613487,28.5452928 Z" id="Fill-1" fill="#FFFFFF" opacity="0.308896019"></path>
            <path d="M20.2599397,3.4852608 L20.2609765,3.4843776 C24.9013861,8.1391488 24.8869861,15.6764928 20.2161253,20.271168 L11.8398181,28.6720512 L11.5377253,28.3699584 L3.46366447,20.2720512 C-1.15961873,15.6660096 -1.15393553,8.1304704 3.47702767,3.4852608 C8.11083247,-1.1617536 15.6252133,-1.1617536 20.2599397,3.4852608 Z M13.6863205,6.144 L8.05261807,6.144 L8.05261807,19.4894976 L10.1259109,19.4894976 L10.1259109,14.2942464 L13.6482277,14.2942464 C16.9083109,14.2942464 18.5383909,12.9301632 18.5383909,10.2010752 C18.5383909,7.4976 16.9225573,6.144 13.6863205,6.144 L13.6863205,6.144 Z M13.5175909,7.8865536 C14.5309669,7.8865536 15.2743909,8.0752512 15.7434085,8.4469632 C16.2229861,8.7825024 16.4650597,9.371712 16.4650597,10.2048 C16.4650597,11.0122752 16.2306277,11.6108928 15.7615717,11.9979264 C15.2925157,12.3706752 14.5452133,12.5582976 13.5175909,12.5582976 L13.5175909,12.5582976 L10.1307109,12.5582976 L10.1307109,7.8865536 Z" id="形状结合" fill="url(#linearGradient-4)"></path>
        </g>
    </g>
</svg>