<?xml version="1.0" encoding="UTF-8"?>
<svg width="24px" height="24px" viewBox="0 0 24 24" version="1.1" xmlns="http://www.w3.org/2000/svg" xmlns:xlink="http://www.w3.org/1999/xlink">
    <!-- Generator: Sketch 63 (92445) - https://sketch.com -->
    <title>icon/我的审批</title>
    <desc>Created with Sketch.</desc>
    <g id="icon/我的审批" stroke="none" stroke-width="1" fill="none" fill-rule="evenodd">
        <path d="M12.1845979,2.70142866 C11.0303491,2.67345315 9.96406419,3.06354816 9.13362477,3.88185536 C8.29856752,4.70466129 7.85345551,5.80334266 7.85345551,6.96037142 C7.85345551,7.99590168 8.20972701,9.00270992 8.89502744,9.79647455 C9.76193488,10.8383327 10.2825154,12.0685036 10.2565055,13.3257104 L5.07674269,13.3257104 C4.69987984,13.3257104 4.35851738,13.4854256 4.1105803,13.7390933 C3.85691737,13.9986192 3.7,14.3567446 3.7,14.7504532 L3.70230444,18.3 L20.3,18.2909272 L20.3,14.7504532 C20.3,14.3567359 20.1430971,13.9985997 19.8894312,13.7390707 C19.6415016,13.4854107 19.3001413,13.3257104 18.9232573,13.3257104 L13.7256562,13.3257104 C13.7727743,11.959671 14.192594,10.7863445 15.0390719,9.8608512 C15.7552386,9.03695102 16.175669,7.96991117 16.1467862,6.8711828 C16.1312362,5.76869216 15.6678902,4.75272836 14.9453795,3.99714563 C14.2268032,3.24567738 13.2483506,2.74810313 12.1845979,2.70142866 Z" id="路径" stroke="#000000" stroke-width="1.4"></path>
        <line x1="3.5" y1="21.5" x2="20.5" y2="21.5" id="路径-20" stroke="#000000" stroke-width="1.4" stroke-linecap="round" stroke-linejoin="round"></line>
    </g>
</svg>