<?xml version="1.0" encoding="UTF-8"?>
<svg width="24px" height="24px" viewBox="0 0 24 24" version="1.1" xmlns="http://www.w3.org/2000/svg" xmlns:xlink="http://www.w3.org/1999/xlink">
    <!-- Generator: Sketch 63 (92445) - https://sketch.com -->
    <title>icon/车辆申请备份</title>
    <desc>Created with Sketch.</desc>
    <g id="icon/车辆申请备份" stroke="none" stroke-width="1" fill="none" fill-rule="evenodd">
        <path d="M2.05199698,13.02606 L6.39911862,13.0639236 C6.85506068,15.4789153 8.83430088,17.3556228 11.3002716,17.6574787 L11.3002716,17.6574787 L11.2998369,21.9758696 C6.4441,21.6400273 2.54240465,17.8376754 2.05199698,13.02606 Z M17.5818562,13.1601252 L21.9288655,13.1989499 C21.3637563,17.9284913 17.4975933,21.64406 12.7001631,21.9758696 L12.7007312,17.6573558 C15.133395,17.3591399 17.0922001,15.5282996 17.5818562,13.1601252 L17.5818562,13.1601252 Z M12,7.7 C14.3748244,7.7 16.3,9.62517558 16.3,12 C16.3,14.3748244 14.3748244,16.3 12,16.3 C9.62517558,16.3 7.7,14.3748244 7.7,12 C7.7,9.62517558 9.62517558,7.7 12,7.7 Z M12,2 C17.5228475,2 22,6.4771525 22,12 L21.996869,11.8 L17.6950517,11.7603118 C17.5724928,8.79752352 15.1883491,6.41858216 12.2234315,6.30429876 L12,6.3 C8.96499672,6.3 6.48400957,8.67202498 6.30977754,11.6633359 L6.30977754,11.6633359 L2.00686897,11.6258765 C2.20362297,6.27637042 6.60241157,2 12,2 Z" id="形状结合" fill="#0099FF"></path>
    </g>
</svg>