<?xml version="1.0" encoding="UTF-8"?>
<svg width="44px" height="44px" viewBox="0 0 44 44" version="1.1" xmlns="http://www.w3.org/2000/svg" xmlns:xlink="http://www.w3.org/1999/xlink">
    <!-- Generator: Sketch 63 (92445) - https://sketch.com -->
    <title>icon/工具/物业</title>
    <desc>Created with Sketch.</desc>
    <defs>
        <linearGradient x1="81.8860373%" y1="80.3095796%" x2="0%" y2="29.5808835%" id="linearGradient-1">
            <stop stop-color="#21A1FF" offset="0%"></stop>
            <stop stop-color="#60DFFF" offset="100%"></stop>
        </linearGradient>
        <linearGradient x1="9.16193182%" y1="8.54048295%" x2="100%" y2="100%" id="linearGradient-2">
            <stop stop-color="#FFFFFF" stop-opacity="0.5" offset="0%"></stop>
            <stop stop-color="#000000" stop-opacity="0" offset="100%"></stop>
        </linearGradient>
        <path d="M4.14336123e-16,15.3833112 L-4.14336123e-16,28.6166888 C2.4074122e-16,33.9658012 0.556953667,35.9055187 1.60279622,37.8610742 C2.64863878,39.8166298 4.18337022,41.3513612 6.13892578,42.3972038 C8.09448133,43.4430463 10.0341988,44 15.3833112,44 L28.6166888,44 C33.9658012,44 35.9055187,43.4430463 37.8610742,42.3972038 C39.8166298,41.3513612 41.3513612,39.8166298 42.3972038,37.8610742 C43.4430463,35.9055187 44,33.9658012 44,28.6166888 L44,15.3833112 C44,10.0341988 43.4430463,8.09448133 42.3972038,6.13892578 C41.3513612,4.18337022 39.8166298,2.64863878 37.8610742,1.60279622 C35.9055187,0.556953667 33.9658012,-3.61111829e-16 28.6166888,6.21504185e-16 L15.3833112,-6.21504185e-16 C10.0341988,3.61111829e-16 8.09448133,0.556953667 6.13892578,1.60279622 C4.18337022,2.64863878 2.64863878,4.18337022 1.60279622,6.13892578 C0.556953667,8.09448133 -2.4074122e-16,10.0341988 4.14336123e-16,15.3833112 Z" id="path-3"></path>
        <linearGradient x1="50%" y1="0%" x2="50%" y2="100%" id="linearGradient-4">
            <stop stop-color="#FFFFFF" stop-opacity="0" offset="0%"></stop>
            <stop stop-color="#FFFFFF" offset="100%"></stop>
        </linearGradient>
        <linearGradient x1="41.6183726%" y1="100%" x2="41.6183726%" y2="0%" id="linearGradient-5">
            <stop stop-color="#DBF0FF" offset="0%"></stop>
            <stop stop-color="#FFFFFF" offset="100%"></stop>
        </linearGradient>
    </defs>
    <g id="icon/工具/物业" stroke="none" stroke-width="1" fill="none" fill-rule="evenodd">
        <g id="Rectangle-">
            <use fill="url(#linearGradient-1)" xlink:href="#path-3"></use>
            <use fill="url(#linearGradient-2)" style="mix-blend-mode: soft-light;" xlink:href="#path-3"></use>
        </g>
        <circle id="椭圆形" fill="url(#linearGradient-4)" opacity="0.435849144" cx="32.5" cy="30.5" r="7.5"></circle>
        <path d="M35.5920374,20.8224521 C35.5920374,19.532618 34.5336683,18.4820671 33.2486562,18.4820671 L26.8856168,18.4820671 L26.8856168,12.340385 C26.8856168,11.0505509 25.8272477,10 24.5422356,10 L11.8191102,10 C10.5277867,10 9.4758908,11.0570158 9.4758908,12.340385 L9.4758908,32.1909885 L9.40450573,32.1909885 C8.62881864,32.1909885 8,32.8198072 8,33.5954943 C8,34.3711814 8.62881864,35 9.40450573,35 L35.5954943,35 C36.3711814,35 37,34.3711814 37,33.5954943 C37,32.8198072 36.3711814,32.1909885 35.5954943,32.1909885 L35.5920374,32.1909885 L35.5920374,32.1909885 L35.5920374,20.8224521 Z M13.7610718,29.3108225 L16.7064206,29.3108225 L16.7064206,26.3692395 L13.7610718,26.3692395 L13.7610718,29.3108225 Z M13.7610718,22.8298124 L16.7064206,22.8298124 L16.7064206,19.8882295 L13.7610718,19.8882295 L13.7610718,22.8298124 Z M13.7610718,16.4133304 L16.7064206,16.4133304 L16.7064206,13.4717475 L13.7610718,13.4717475 L13.7610718,16.4133304 Z M19.5869565,29.3108225 L22.5323053,29.3108225 L22.5323053,26.3692395 L19.5869565,26.3692395 L19.5869565,29.3108225 Z M19.5869565,22.8298124 L22.5323053,22.8298124 L22.5323053,19.8882295 L19.5869565,19.8882295 L19.5869565,22.8298124 Z M19.5869565,16.4133304 L22.5323053,16.4133304 L22.5323053,13.4717475 L19.5869565,13.4717475 L19.5869565,16.4133304 Z M26.953545,32.1876753 L32.7146572,32.1876753 L32.7146572,21.3557683 L26.953545,21.3557683 L26.953545,32.1876753 Z" id="Fill-1" fill="url(#linearGradient-5)"></path>
    </g>
</svg>