<?xml version="1.0" encoding="UTF-8"?>
<svg width="24px" height="24px" viewBox="0 0 24 24" version="1.1" xmlns="http://www.w3.org/2000/svg" xmlns:xlink="http://www.w3.org/1999/xlink">
    <!-- Generator: Sketch 63 (92445) - https://sketch.com -->
    <title>icon/我的预约 </title>
    <desc>Created with Sketch.</desc>
    <g id="icon/我的预约-" stroke="none" stroke-width="1" fill="none" fill-rule="evenodd">
        <polyline id="路径-22" stroke="#000000" stroke-width="1.4" stroke-linecap="round" stroke-linejoin="round" transform="translate(12.592846, 12.437999) rotate(40.000000) translate(-12.592846, -12.437999) " points="10.0928459 16.4379987 15.0928459 16.4379987 15.0928459 8.43799866"></polyline>
        <line x1="16.3308116" y1="2.58600343" x2="16.3308116" y2="6.58600343" id="路径-21" stroke="#000000" stroke-width="1.4" stroke-linecap="round" stroke-linejoin="round"></line>
        <line x1="8.03617735" y1="2.58579086" x2="8.03617735" y2="6.58579086" id="路径-21" stroke="#000000" stroke-width="1.4" stroke-linecap="round" stroke-linejoin="round"></line>
        <path d="M19,4.7 L5,4.7 C4.36487254,4.7 3.78987254,4.95743627 3.3736544,5.3736544 C2.95743627,5.78987254 2.7,6.36487254 2.7,7 L2.7,20 C2.7,20.6351275 2.95743627,21.2101275 3.3736544,21.6263456 C3.78987254,22.0425637 4.36487254,22.3 5,22.3 L19,22.3 C19.6351275,22.3 20.2101275,22.0425637 20.6263456,21.6263456 C21.0425637,21.2101275 21.3,20.6351275 21.3,20 L21.3,7 C21.3,6.36487254 21.0425637,5.78987254 20.6263456,5.3736544 C20.2101275,4.95743627 19.6351275,4.7 19,4.7 Z" id="矩形" stroke="#000000" stroke-width="1.4"></path>
    </g>
</svg>