<?xml version="1.0" encoding="UTF-8"?>
<svg width="24px" height="24px" viewBox="0 0 24 24" version="1.1" xmlns="http://www.w3.org/2000/svg" xmlns:xlink="http://www.w3.org/1999/xlink">
    <!-- Generator: Sketch 63 (92445) - https://sketch.com -->
    <title>icon/我的预约 备份 3</title>
    <desc>Created with Sketch.</desc>
    <g id="icon/我的预约-备份-3" stroke="none" stroke-width="1" fill="none" fill-rule="evenodd" stroke-linecap="round">
        <g id="编组" transform="translate(4.000000, 3.000000)" stroke="#333333" stroke-width="1.4">
            <path d="M0,3.41321684 C0,3.41321684 5.13333333,3.41321684 15.4,3.41321684" id="路径-52"></path>
            <path d="M1.54,5.72321684 L1.54,15.8432168 C1.54,17.0582433 2.52497355,18.0432168 3.74,18.0432168 L11.66,18.0432168 C12.8750264,18.0432168 13.86,17.0582433 13.86,15.8432168 L13.86,6.16086788 L13.86,6.16086788" id="路径-53"></path>
            <line x1="5.5" y1="6.6" x2="5.5" y2="14.3" id="路径-54"></line>
            <path d="M3.08,2.80687803 L3.08,2.2 C3.08,0.98497355 4.06497355,6.57367244e-15 5.28,6.3504757e-15 L10.12,6.3504757e-15 C11.3350264,6.12727896e-15 12.32,0.98497355 12.32,2.2 L12.32,3.08 L12.32,3.08" id="路径-55"></path>
            <line x1="9.9" y1="6.6" x2="9.9" y2="14.3" id="路径-54"></line>
        </g>
    </g>
</svg>