<?xml version="1.0" encoding="UTF-8"?>
<svg width="44px" height="44px" viewBox="0 0 44 44" version="1.1" xmlns="http://www.w3.org/2000/svg" xmlns:xlink="http://www.w3.org/1999/xlink">
    <!-- Generator: Sketch 63 (92445) - https://sketch.com -->
    <title>icon/工具/信息报备</title>
    <desc>Created with Sketch.</desc>
    <defs>
        <linearGradient x1="100%" y1="100%" x2="-12.7261835%" y2="0%" id="linearGradient-1">
            <stop stop-color="#63DD5A" offset="0%"></stop>
            <stop stop-color="#75E5A6" offset="100%"></stop>
            <stop stop-color="#75E5A6" offset="100%"></stop>
        </linearGradient>
        <linearGradient x1="50%" y1="0%" x2="50%" y2="99.6014569%" id="linearGradient-2">
            <stop stop-color="#FFFFFF" offset="0%"></stop>
            <stop stop-color="#E5FFE9" offset="100%"></stop>
        </linearGradient>
        <linearGradient x1="50%" y1="0%" x2="50%" y2="100%" id="linearGradient-3">
            <stop stop-color="#FFFFFF" stop-opacity="0" offset="0%"></stop>
            <stop stop-color="#FFFFFF" offset="100%"></stop>
        </linearGradient>
    </defs>
    <g id="icon/工具/信息报备" stroke="none" stroke-width="1" fill="none" fill-rule="evenodd">
        <g id="工作/icon/抄送给我">
            <path d="M4.14336123e-16,15.3833112 L-4.14336123e-16,28.6166888 C2.4074122e-16,33.9658012 0.556953667,35.9055187 1.60279622,37.8610742 C2.64863878,39.8166298 4.18337022,41.3513612 6.13892578,42.3972038 C8.09448133,43.4430463 10.0341988,44 15.3833112,44 L28.6166888,44 C33.9658012,44 35.9055187,43.4430463 37.8610742,42.3972038 C39.8166298,41.3513612 41.3513612,39.8166298 42.3972038,37.8610742 C43.4430463,35.9055187 44,33.9658012 44,28.6166888 L44,15.3833112 C44,10.0341988 43.4430463,8.09448133 42.3972038,6.13892578 C41.3513612,4.18337022 39.8166298,2.64863878 37.8610742,1.60279622 C35.9055187,0.556953667 33.9658012,-3.61111829e-16 28.6166888,6.21504185e-16 L15.3833112,-6.21504185e-16 C10.0341988,3.61111829e-16 8.09448133,0.556953667 6.13892578,1.60279622 C4.18337022,2.64863878 2.64863878,4.18337022 1.60279622,6.13892578 C0.556953667,8.09448133 -2.4074122e-16,10.0341988 4.14336123e-16,15.3833112 Z" id="Rectangle-" fill="url(#linearGradient-1)"></path>
            <g id="Group-7" transform="translate(11.000000, 10.000000)">
                <g id="Group-9" transform="translate(0.000000, 0.500000)">
                    <path d="M16,0 L16,5 C16,5.55228475 16.4477153,6 17,6 L22,6 L22,21 C22,22.1045695 21.1045695,23 20,23 L2,23 C0.8954305,23 1.3527075e-16,22.1045695 0,21 L0,2 C-1.3527075e-16,0.8954305 0.8954305,2.02906125e-16 2,0 L16,0 Z M13.3160443,7.35353965 L13.2467964,7.4113951 L6.24643928,14.4117522 L6.1757286,16.6037833 L8.36775962,16.5330726 L15.3681168,9.53271544 C15.5416831,9.35914909 15.5609683,9.08972469 15.4259722,8.89485655 L15.3681168,8.82560866 L13.9539032,7.4113951 C13.7803368,7.23782874 13.5109124,7.21854359 13.3160443,7.35353965 Z M17,0 L22,5 L17.5,5 C17.2238576,5 17,4.77614237 17,4.5 L17,0 Z" id="形状结合" fill="url(#linearGradient-2)" fill-rule="nonzero"></path>
                    <circle id="椭圆形" fill="url(#linearGradient-3)" opacity="0.435849144" cx="21.5" cy="20" r="7.5"></circle>
                </g>
            </g>
        </g>
    </g>
</svg>