<?xml version="1.0" encoding="UTF-8"?>
<svg width="44px" height="44px" viewBox="0 0 44 44" version="1.1" xmlns="http://www.w3.org/2000/svg" xmlns:xlink="http://www.w3.org/1999/xlink">
    <!-- Generator: Sketch 63 (92445) - https://sketch.com -->
    <title>icon/工具/便利店</title>
    <desc>Created with Sketch.</desc>
    <defs>
        <linearGradient x1="105.439467%" y1="78.183398%" x2="13.1550721%" y2="16.8772172%" id="linearGradient-1">
            <stop stop-color="#FF120B" offset="0%"></stop>
            <stop stop-color="#FF5753" offset="100%"></stop>
        </linearGradient>
        <linearGradient x1="50%" y1="0%" x2="50%" y2="100%" id="linearGradient-2">
            <stop stop-color="#FFFFFF" offset="0%"></stop>
            <stop stop-color="#FFE6F3" offset="100%"></stop>
        </linearGradient>
        <linearGradient x1="50%" y1="0%" x2="50%" y2="100%" id="linearGradient-3">
            <stop stop-color="#FFFFFF" stop-opacity="0" offset="0%"></stop>
            <stop stop-color="#FFFFFF" offset="100%"></stop>
        </linearGradient>
    </defs>
    <g id="icon/工具/便利店" stroke="none" stroke-width="1" fill="none" fill-rule="evenodd">
        <path d="M4.14336123e-16,15.3833112 L-4.14336123e-16,28.6166888 C2.4074122e-16,33.9658012 0.556953667,35.9055187 1.60279622,37.8610742 C2.64863878,39.8166298 4.18337022,41.3513612 6.13892578,42.3972038 C8.09448133,43.4430463 10.0341988,44 15.3833112,44 L28.6166888,44 C33.9658012,44 35.9055187,43.4430463 37.8610742,42.3972038 C39.8166298,41.3513612 41.3513612,39.8166298 42.3972038,37.8610742 C43.4430463,35.9055187 44,33.9658012 44,28.6166888 L44,15.3833112 C44,10.0341988 43.4430463,8.09448133 42.3972038,6.13892578 C41.3513612,4.18337022 39.8166298,2.64863878 37.8610742,1.60279622 C35.9055187,0.556953667 33.9658012,-3.61111829e-16 28.6166888,6.21504185e-16 L15.3833112,-6.21504185e-16 C10.0341988,3.61111829e-16 8.09448133,0.556953667 6.13892578,1.60279622 C4.18337022,2.64863878 2.64863878,4.18337022 1.60279622,6.13892578 C0.556953667,8.09448133 -2.4074122e-16,10.0341988 4.14336123e-16,15.3833112 Z" id="Rectangle-" fill="url(#linearGradient-1)" fill-rule="nonzero"></path>
        <path d="M33.6666386,15.2999446 L31.7631533,11.4730909 C31.3138629,10.5690098 30.4080161,9.99964876 29.4184932,10.0000002 L14.5813923,10.0000002 C13.5918987,9.99964876 12.6863743,10.5690098 12.2367323,11.4730909 L10.3334814,15.2999446 C9.27701172,17.7843438 10.8406946,20.7202416 13.4742365,20.939648 C14.945571,21.064952 16.3681237,20.3674159 17.1972966,19.1144056 C17.4608647,18.7136205 17.9915752,18.607887 18.3823861,18.8780654 C18.4738556,18.9413473 18.5522287,19.0215922 18.6132279,19.1144056 C19.3499352,20.2248266 20.5918049,20.9534763 21.9999428,20.9534763 C23.4082272,20.9534763 24.6500676,20.2248266 25.3871265,19.1144056 C25.6508117,18.7136205 26.181493,18.607887 26.5723331,18.8780654 C26.6636561,18.9412594 26.7419413,19.021475 26.8027061,19.1144056 C27.6318791,20.3674159 29.0547834,21.0648348 30.5257662,20.939648 C33.159191,20.7202416 34.7228739,17.7843438 33.6666386,15.2999446 Z M30.9057367,22.6661004 C30.6682442,22.6962179 30.4291695,22.7114231 30.1897433,22.7117747 C28.9034866,22.7123313 27.6535013,22.2743681 26.6359399,21.467202 C26.3203086,21.2117894 25.868938,21.2117894 25.5532775,21.467202 C24.5360969,22.2743681 23.2863167,22.7120091 21.9999428,22.7117747 C20.7136861,22.7123313 19.4639351,22.2743681 18.4464909,21.467202 C18.1308596,21.2117894 17.6794598,21.2117894 17.3638285,21.467202 C16.1528686,22.4277094 14.6214432,22.8586999 13.1021766,22.6669207 C12.634897,22.6065979 12.2085766,22.9458004 12.1496283,23.4249848 C12.1450577,23.4618113 12.1428896,23.4990187 12.1428896,23.5361968 L12.1428896,32.2175607 C12.1428896,33.2019746 12.89993,34 13.8346357,34 L30.1659531,34 C31.1001899,34 31.8575819,33.2019746 31.8575819,32.2175607 L31.8575819,23.5385992 C31.8570252,23.0144729 31.4122761,22.5993908 30.9057367,22.6661004 Z M27.349062,29.3050128 L16.6503548,29.3050128 C16.1791785,29.3050128 15.7932605,28.9091496 15.7932605,28.4256292 C15.7932605,27.9418745 16.1792957,27.5462457 16.6503548,27.5462457 L27.349062,27.5462457 C27.8203555,27.5462457 28.2062735,27.9418745 28.2062735,28.4256292 C28.2062735,28.9089152 27.8203555,29.3050128 27.349062,29.3050128 Z" id="Fill-1" fill="url(#linearGradient-2)" fill-rule="nonzero"></path>
        <circle id="椭圆形" fill="url(#linearGradient-3)" opacity="0.435849144" cx="32.5" cy="30.5" r="7.5"></circle>
    </g>
</svg>