<?xml version="1.0" encoding="UTF-8"?>
<svg width="44px" height="44px" viewBox="0 0 44 44" version="1.1" xmlns="http://www.w3.org/2000/svg" xmlns:xlink="http://www.w3.org/1999/xlink">
    <!-- Generator: Sketch 63 (92445) - https://sketch.com -->
    <title>icon/工具/通讯录</title>
    <desc>Created with Sketch.</desc>
    <defs>
        <linearGradient x1="0%" y1="-7.6569647%" x2="100%" y2="100%" id="linearGradient-1">
            <stop stop-color="#B8A9FF" offset="0%"></stop>
            <stop stop-color="#6E73FF" offset="100%"></stop>
        </linearGradient>
        <linearGradient x1="50%" y1="0%" x2="50%" y2="100%" id="linearGradient-2">
            <stop stop-color="#FFFFFF" offset="0%"></stop>
            <stop stop-color="#FFF0DC" offset="100%"></stop>
        </linearGradient>
        <linearGradient x1="50%" y1="0%" x2="50%" y2="100%" id="linearGradient-3">
            <stop stop-color="#FFFFFF" stop-opacity="0" offset="0%"></stop>
            <stop stop-color="#FFFFFF" offset="100%"></stop>
        </linearGradient>
    </defs>
    <g id="icon/工具/通讯录" stroke="none" stroke-width="1" fill="none" fill-rule="evenodd">
        <g id="工作/icon/转正申请">
            <g id="编组">
                <path d="M4.14336123e-16,15.3833112 L-4.14336123e-16,28.6166888 C2.4074122e-16,33.9658012 0.556953667,35.9055187 1.60279622,37.8610742 C2.64863878,39.8166298 4.18337022,41.3513612 6.13892578,42.3972038 C8.09448133,43.4430463 10.0341988,44 15.3833112,44 L28.6166888,44 C33.9658012,44 35.9055187,43.4430463 37.8610742,42.3972038 C39.8166298,41.3513612 41.3513612,39.8166298 42.3972038,37.8610742 C43.4430463,35.9055187 44,33.9658012 44,28.6166888 L44,15.3833112 C44,10.0341988 43.4430463,8.09448133 42.3972038,6.13892578 C41.3513612,4.18337022 39.8166298,2.64863878 37.8610742,1.60279622 C35.9055187,0.556953667 33.9658012,-3.61111829e-16 28.6166888,6.21504185e-16 L15.3833112,-6.21504185e-16 C10.0341988,3.61111829e-16 8.09448133,0.556953667 6.13892578,1.60279622 C4.18337022,2.64863878 2.64863878,4.18337022 1.60279622,6.13892578 C0.556953667,8.09448133 -2.4074122e-16,10.0341988 4.14336123e-16,15.3833112 Z" id="Rectangle-" fill="url(#linearGradient-1)"></path>
                <path d="M31.4607085,32.9961595 L12.1098162,32.9961595 C11.5,32.9961595 11.0049751,32.4980934 11,31.9964511 C11.0049751,31.0237282 11.0049751,29.3624642 13.9454764,28.0408196 C15.8061355,27.2049776 19.1995118,25.8755861 19.1995118,25.8755861 L19.0667155,24.3729605 C19.0667155,24.3729605 16.5012525,23.715215 16.1088524,21.1553287 C15.3183655,21.3484245 15.0574705,20.3712426 15.0108517,19.7491549 C14.9685459,19.148275 14.5535643,17.2711606 15.51756,17.4405486 C15.320316,16.1871977 15.2078571,14.9962205 15.2482313,14.4583734 C15.320316,13.4980934 15.5,12.9980934 16.1082206,12.4850819 C16.3590336,12.2836073 15.8913346,11.343237 16.0435806,11.0345145 C16.3234033,10.467177 18.4015528,10.7268633 18.7207969,10.5979954 C19.5503479,10.262818 20.5088219,10.046399 21.5754778,10 C25.9158619,10.1601852 27.6353185,12.3548405 27.8763518,14.4566427 C27.9467332,15.0555172 27.791905,16.1865109 27.5944687,17.4376642 C28.5591236,17.2705013 28.1398291,19.1444565 28.092963,19.7455836 C28.0503001,20.3677263 27.7833064,21.3414743 26.9951821,21.1489279 C26.6010787,23.708567 24.5027653,24.3627961 24.5027653,24.3627961 L24.3713151,25.855999 C24.3713151,25.855999 27.7642519,27.2051699 29.6251857,28.0412591 C32.5654672,29.3624092 32.5654672,31.9964511 32.5654672,31.9964511 C32.5650002,32.5496683 32.0705441,32.9961595 31.4607085,32.9961595 Z" id="Shape" fill="url(#linearGradient-2)" fill-rule="nonzero"></path>
                <circle id="椭圆形" fill="url(#linearGradient-3)" opacity="0.435849144" cx="32.5" cy="30.5" r="7.5"></circle>
            </g>
            <g id="Group-12" transform="translate(11.000000, 10.000000)"></g>
        </g>
    </g>
</svg>