<?xml version="1.0" encoding="UTF-8"?>
<svg width="44px" height="44px" viewBox="0 0 44 44" version="1.1" xmlns="http://www.w3.org/2000/svg" xmlns:xlink="http://www.w3.org/1999/xlink">
    <!-- Generator: Sketch 63 (92445) - https://sketch.com -->
    <title>icon/工具/园区导航</title>
    <desc>Created with Sketch.</desc>
    <defs>
        <linearGradient x1="88.349698%" y1="91.7835403%" x2="10.9039522%" y2="0%" id="linearGradient-1">
            <stop stop-color="#4ED2F0" offset="0%"></stop>
            <stop stop-color="#50E5DC" offset="100%"></stop>
        </linearGradient>
        <linearGradient x1="50%" y1="0%" x2="50%" y2="100%" id="linearGradient-2">
            <stop stop-color="#FFFFFF" offset="0%"></stop>
            <stop stop-color="#E5FBFF" offset="100%"></stop>
        </linearGradient>
        <linearGradient x1="50%" y1="0%" x2="50%" y2="100%" id="linearGradient-3">
            <stop stop-color="#FFFFFF" stop-opacity="0" offset="0%"></stop>
            <stop stop-color="#FFFFFF" offset="100%"></stop>
        </linearGradient>
    </defs>
    <g id="icon/工具/园区导航" stroke="none" stroke-width="1" fill="none" fill-rule="evenodd">
        <path d="M4.14336123e-16,15.3833112 L-4.14336123e-16,28.6166888 C2.4074122e-16,33.9658012 0.556953667,35.9055187 1.60279622,37.8610742 C2.64863878,39.8166298 4.18337022,41.3513612 6.13892578,42.3972038 C8.09448133,43.4430463 10.0341988,44 15.3833112,44 L28.6166888,44 C33.9658012,44 35.9055187,43.4430463 37.8610742,42.3972038 C39.8166298,41.3513612 41.3513612,39.8166298 42.3972038,37.8610742 C43.4430463,35.9055187 44,33.9658012 44,28.6166888 L44,15.3833112 C44,10.0341988 43.4430463,8.09448133 42.3972038,6.13892578 C41.3513612,4.18337022 39.8166298,2.64863878 37.8610742,1.60279622 C35.9055187,0.556953667 33.9658012,-3.61111829e-16 28.6166888,6.21504185e-16 L15.3833112,-6.21504185e-16 C10.0341988,3.61111829e-16 8.09448133,0.556953667 6.13892578,1.60279622 C4.18337022,2.64863878 2.64863878,4.18337022 1.60279622,6.13892578 C0.556953667,8.09448133 -2.4074122e-16,10.0341988 4.14336123e-16,15.3833112 Z" id="Rectangle-" fill="url(#linearGradient-1)"></path>
        <path d="M31.1986033,9.7472639 L8.77739044,19.0481374 C8.36928301,19.2174304 8.17568571,19.685506 8.34497876,20.0936134 C8.42599837,20.2889239 8.58104609,20.4442156 8.77622892,20.5255422 L17.7548154,24.2666397 L17.7548154,24.2666397 L21.3145479,33.1888713 C21.4782753,33.5992432 21.9436748,33.799188 22.3540468,33.6354606 C22.5528526,33.5561424 22.7115817,33.4004642 22.7947431,33.2032351 L32.2422866,10.7970264 C32.413947,10.3899091 32.2230714,9.92071703 31.8159541,9.74905663 C31.6186989,9.66588427 31.3963382,9.66523856 31.1986033,9.7472639 Z" id="Fill-1" fill="url(#linearGradient-2)" fill-rule="nonzero"></path>
        <circle id="椭圆形" fill="url(#linearGradient-3)" opacity="0.435849144" cx="28.5" cy="28.5" r="7.5"></circle>
    </g>
</svg>