<?xml version="1.0" encoding="UTF-8"?>
<svg width="44px" height="44px" viewBox="0 0 44 44" version="1.1" xmlns="http://www.w3.org/2000/svg" xmlns:xlink="http://www.w3.org/1999/xlink">
    <!-- Generator: Sketch 63 (92445) - https://sketch.com -->
    <title>icon/工具/帮助中心</title>
    <desc>Created with Sketch.</desc>
    <defs>
        <linearGradient x1="92.9680895%" y1="91.618866%" x2="0%" y2="0%" id="linearGradient-1">
            <stop stop-color="#FFA029" offset="0%"></stop>
            <stop stop-color="#FFD594" offset="100%"></stop>
        </linearGradient>
        <linearGradient x1="50%" y1="0%" x2="50%" y2="100%" id="linearGradient-2">
            <stop stop-color="#FFFFFF" offset="0%"></stop>
            <stop stop-color="#FFF0DC" offset="100%"></stop>
        </linearGradient>
        <linearGradient x1="50%" y1="0%" x2="50%" y2="100%" id="linearGradient-3">
            <stop stop-color="#FFFFFF" stop-opacity="0" offset="0%"></stop>
            <stop stop-color="#FFFFFF" offset="100%"></stop>
        </linearGradient>
    </defs>
    <g id="icon/工具/帮助中心" stroke="none" stroke-width="1" fill="none" fill-rule="evenodd">
        <g id="工作/icon/调薪申请">
            <path d="M4.14336123e-16,15.3833112 L-4.14336123e-16,28.6166888 C2.4074122e-16,33.9658012 0.556953667,35.9055187 1.60279622,37.8610742 C2.64863878,39.8166298 4.18337022,41.3513612 6.13892578,42.3972038 C8.09448133,43.4430463 10.0341988,44 15.3833112,44 L28.6166888,44 C33.9658012,44 35.9055187,43.4430463 37.8610742,42.3972038 C39.8166298,41.3513612 41.3513612,39.8166298 42.3972038,37.8610742 C43.4430463,35.9055187 44,33.9658012 44,28.6166888 L44,15.3833112 C44,10.0341988 43.4430463,8.09448133 42.3972038,6.13892578 C41.3513612,4.18337022 39.8166298,2.64863878 37.8610742,1.60279622 C35.9055187,0.556953667 33.9658012,-3.61111829e-16 28.6166888,6.21504185e-16 L15.3833112,-6.21504185e-16 C10.0341988,3.61111829e-16 8.09448133,0.556953667 6.13892578,1.60279622 C4.18337022,2.64863878 2.64863878,4.18337022 1.60279622,6.13892578 C0.556953667,8.09448133 -2.4074122e-16,10.0341988 4.14336123e-16,15.3833112 Z" id="Rectangle-" fill="url(#linearGradient-1)"></path>
            <g id="Group-16" transform="translate(10.000000, 10.000000)">
                <path d="M12,0 C18.627417,0 24,5.372583 24,12 C24,18.627417 18.627417,24 12,24 C5.372583,24 0,18.627417 0,12 C0,5.372583 5.372583,0 12,0 Z M11.9959881,16.8464771 C11.3740973,16.8464771 10.8628147,17.3114916 10.8371536,17.9005185 L10.8351456,17.9005185 C10.8351456,18.2933322 11.0562261,18.6562719 11.4150394,18.8527433 C11.7739888,19.0490856 12.2161497,19.0490856 12.5749629,18.8527433 C12.9339124,18.6562719 13.1549928,18.2933322 13.1549928,17.9005185 C13.1291955,17.3114916 12.617913,16.8464771 11.9959881,16.8464771 Z M12.000923,6 C9.79301138,6.00203246 8.00319913,7.69775126 8,9.79083258 C8.03270602,10.2732359 8.45495741,10.6486607 8.96491266,10.6486607 C9.47486791,10.6486607 9.8971193,10.2732359 9.92979129,9.79083258 C9.97845894,8.74095287 10.8904498,7.91351488 11.9990511,7.91351488 C13.1075504,7.91351488 14.0195072,8.74095287 14.0681748,9.79083258 C14.0681748,10.4961938 13.6702913,11.1449364 13.0296481,11.4863255 C12.980572,11.5119088 12.9339124,11.5416537 12.8903157,11.5749151 C11.7338295,12.2701785 11.0321645,13.4773321 11.0300545,14.7754625 C11.0300545,14.845276 11.0340364,14.941447 11.0639516,15.0527162 C11.19304,15.5106655 11.6690981,15.799759 12.1619006,15.7194929 C12.654737,15.6390977 13.0015706,15.2158939 12.9619558,14.7433303 C12.9756712,14.0573904 13.3663737,13.42794 13.9925188,13.0837764 L14.0005166,13.0780984 C14.0173971,13.0683878 14.0340054,13.058419 14.0502393,13.0478373 L14.0701828,13.0347392 C15.2706401,12.3505737 16.0035476,11.1185789 15.9999871,9.79083258 C15.9967749,7.69852553 14.2081539,6.00303256 12.000923,6 Z" id="形状结合" fill="url(#linearGradient-2)" fill-rule="nonzero"></path>
                <circle id="椭圆形" fill="url(#linearGradient-3)" opacity="0.435849144" cx="19.5" cy="19.5" r="7.5"></circle>
            </g>
        </g>
    </g>
</svg>