<?xml version="1.0" encoding="UTF-8"?>
<svg width="44px" height="44px" viewBox="0 0 44 44" version="1.1" xmlns="http://www.w3.org/2000/svg" xmlns:xlink="http://www.w3.org/1999/xlink">
    <!-- Generator: Sketch 63 (92445) - https://sketch.com -->
    <title>工作/icon/预约中心</title>
    <desc>Created with Sketch.</desc>
    <defs>
        <linearGradient x1="0%" y1="-7.6569647%" x2="100%" y2="100%" id="linearGradient-1">
            <stop stop-color="#B8A9FF" offset="0%"></stop>
            <stop stop-color="#6E73FF" offset="100%"></stop>
        </linearGradient>
        <linearGradient x1="50%" y1="0%" x2="50%" y2="100%" id="linearGradient-2">
            <stop stop-color="#FFFFFF" offset="0%"></stop>
            <stop stop-color="#E2DFFF" offset="100%"></stop>
        </linearGradient>
        <linearGradient x1="50%" y1="0%" x2="50%" y2="100%" id="linearGradient-3">
            <stop stop-color="#FFFFFF" stop-opacity="0" offset="0%"></stop>
            <stop stop-color="#FFFFFF" offset="100%"></stop>
        </linearGradient>
    </defs>
    <g id="工作/icon/预约中心" stroke="none" stroke-width="1" fill="none" fill-rule="evenodd">
        <g id="工作/icon/考勤打卡">
            <path d="M4.14336123e-16,15.3833112 L-4.14336123e-16,28.6166888 C2.4074122e-16,33.9658012 0.556953667,35.9055187 1.60279622,37.8610742 C2.64863878,39.8166298 4.18337022,41.3513612 6.13892578,42.3972038 C8.09448133,43.4430463 10.0341988,44 15.3833112,44 L28.6166888,44 C33.9658012,44 35.9055187,43.4430463 37.8610742,42.3972038 C39.8166298,41.3513612 41.3513612,39.8166298 42.3972038,37.8610742 C43.4430463,35.9055187 44,33.9658012 44,28.6166888 L44,15.3833112 C44,10.0341988 43.4430463,8.09448133 42.3972038,6.13892578 C41.3513612,4.18337022 39.8166298,2.64863878 37.8610742,1.60279622 C35.9055187,0.556953667 33.9658012,-3.61111829e-16 28.6166888,6.21504185e-16 L15.3833112,-6.21504185e-16 C10.0341988,3.61111829e-16 8.09448133,0.556953667 6.13892578,1.60279622 C4.18337022,2.64863878 2.64863878,4.18337022 1.60279622,6.13892578 C0.556953667,8.09448133 -2.4074122e-16,10.0341988 4.14336123e-16,15.3833112 Z" id="Rectangle-" fill="url(#linearGradient-1)"></path>
            <g id="Group-22" transform="translate(11.000000, 11.000000)">
                <g id="编组">
                    <path d="M22,7 L22,20 C22,21.1045695 21.1045695,22 20,22 L2,22 C0.8954305,22 1.3527075e-16,21.1045695 0,20 L0,7 L22,7 Z M15.7156945,9.79569794 L15.6464466,9.85355339 L10.5,15 L7.35355339,11.8535534 C7.17998704,11.679987 6.91056264,11.6607019 6.7156945,11.7956979 L6.64644661,11.8535534 L5.85355339,12.6464466 C5.67998704,12.820013 5.66070189,13.0894374 5.79569794,13.2843055 L5.85355339,13.3535534 L9.79289322,17.2928932 C10.1533772,17.6533772 10.7206082,17.6811067 11.1128994,17.3760818 L11.2071068,17.2928932 L17.1464466,11.3535534 C17.320013,11.179987 17.3392981,10.9105626 17.2043021,10.7156945 L17.1464466,10.6464466 L16.3535534,9.85355339 C16.179987,9.67998704 15.9105626,9.66070189 15.7156945,9.79569794 Z M6.5,0 C6.77614237,-5.07265313e-17 7,0.223857625 7,0.5 L7,2 L15,2 L15,0.5 C15,0.223857625 15.2238576,5.07265313e-17 15.5,0 L16.5,0 C16.7761424,-5.07265313e-17 17,0.223857625 17,0.5 L17,2 L20,2 C21.1045695,2 22,2.8954305 22,4 L22,6 L0,6 L0,4 C-1.3527075e-16,2.8954305 0.8954305,2 2,2 L5,2 L5,0.5 C5,0.223857625 5.22385763,5.07265313e-17 5.5,0 L6.5,0 Z" id="形状结合" fill="url(#linearGradient-2)"></path>
                    <circle id="椭圆形" fill="url(#linearGradient-3)" opacity="0.435849144" cx="21.5" cy="19.5" r="7.5"></circle>
                </g>
            </g>
        </g>
    </g>
</svg>