<?xml version="1.0" encoding="UTF-8"?>
<svg width="44px" height="44px" viewBox="0 0 44 44" version="1.1" xmlns="http://www.w3.org/2000/svg" xmlns:xlink="http://www.w3.org/1999/xlink">
    <!-- Generator: Sketch 63 (92445) - https://sketch.com -->
    <title>icon/工具/日程协同</title>
    <desc>Created with Sketch.</desc>
    <defs>
        <linearGradient x1="100%" y1="100%" x2="-12.7261835%" y2="0%" id="linearGradient-1">
            <stop stop-color="#63DD5A" offset="0%"></stop>
            <stop stop-color="#75E5A6" offset="100%"></stop>
            <stop stop-color="#75E5A6" offset="100%"></stop>
        </linearGradient>
        <linearGradient x1="50%" y1="0%" x2="50%" y2="99.6014569%" id="linearGradient-2">
            <stop stop-color="#FFFFFF" offset="0%"></stop>
            <stop stop-color="#E5FFE9" offset="100%"></stop>
        </linearGradient>
        <linearGradient x1="50%" y1="0%" x2="50%" y2="100%" id="linearGradient-3">
            <stop stop-color="#FFFFFF" stop-opacity="0" offset="0%"></stop>
            <stop stop-color="#FFFFFF" offset="100%"></stop>
        </linearGradient>
    </defs>
    <g id="icon/工具/日程协同" stroke="none" stroke-width="1" fill="none" fill-rule="evenodd">
        <g id="工作/icon/工作日志">
            <path d="M4.14336123e-16,15.3833112 L-4.14336123e-16,28.6166888 C2.4074122e-16,33.9658012 0.556953667,35.9055187 1.60279622,37.8610742 C2.64863878,39.8166298 4.18337022,41.3513612 6.13892578,42.3972038 C8.09448133,43.4430463 10.0341988,44 15.3833112,44 L28.6166888,44 C33.9658012,44 35.9055187,43.4430463 37.8610742,42.3972038 C39.8166298,41.3513612 41.3513612,39.8166298 42.3972038,37.8610742 C43.4430463,35.9055187 44,33.9658012 44,28.6166888 L44,15.3833112 C44,10.0341988 43.4430463,8.09448133 42.3972038,6.13892578 C41.3513612,4.18337022 39.8166298,2.64863878 37.8610742,1.60279622 C35.9055187,0.556953667 33.9658012,-3.61111829e-16 28.6166888,6.21504185e-16 L15.3833112,-6.21504185e-16 C10.0341988,3.61111829e-16 8.09448133,0.556953667 6.13892578,1.60279622 C4.18337022,2.64863878 2.64863878,4.18337022 1.60279622,6.13892578 C0.556953667,8.09448133 -2.4074122e-16,10.0341988 4.14336123e-16,15.3833112 Z" id="Rectangle-" fill="url(#linearGradient-1)"></path>
            <g id="Group-21" transform="translate(11.000000, 11.000000)">
                <g id="Group-22">
                    <path d="M22,7 L22,20 C22,21.1045695 21.1045695,22 20,22 L2,22 C0.8954305,22 1.3527075e-16,21.1045695 0,20 L0,7 L22,7 Z M13.397675,8.99239708 L13.3284271,9.05025253 L6.32806999,16.0506097 L6.25735931,18.2426407 L8.44939033,18.17193 L15.4497475,11.1715729 C15.6233138,10.9980065 15.642599,10.7285821 15.5076029,10.533714 L15.4497475,10.4644661 L14.0355339,9.05025253 C13.8619676,8.87668618 13.5925432,8.85740103 13.397675,8.99239708 Z M6.5,0 C6.77614237,-5.07265313e-17 7,0.223857625 7,0.5 L7,2 L15,2 L15,0.5 C15,0.223857625 15.2238576,5.07265313e-17 15.5,0 L16.5,0 C16.7761424,-5.07265313e-17 17,0.223857625 17,0.5 L17,2 L20,2 C21.1045695,2 22,2.8954305 22,4 L22,6 L0,6 L0,4 C-1.3527075e-16,2.8954305 0.8954305,2 2,2 L5,2 L5,0.5 C5,0.223857625 5.22385763,5.07265313e-17 5.5,0 L6.5,0 Z" id="形状结合" fill="url(#linearGradient-2)" fill-rule="nonzero"></path>
                    <circle id="椭圆形" fill="url(#linearGradient-3)" opacity="0.435849144" cx="18.5" cy="18.5" r="7.5"></circle>
                </g>
            </g>
        </g>
    </g>
</svg>