<?xml version="1.0" encoding="UTF-8"?>
<svg width="44px" height="44px" viewBox="0 0 44 44" version="1.1" xmlns="http://www.w3.org/2000/svg" xmlns:xlink="http://www.w3.org/1999/xlink">
    <!-- Generator: Sketch 63 (92445) - https://sketch.com -->
    <title>icon/工具/去哪里吃</title>
    <desc>Created with Sketch.</desc>
    <defs>
        <linearGradient x1="92.9680895%" y1="91.618866%" x2="0%" y2="0%" id="linearGradient-1">
            <stop stop-color="#FFA029" offset="0%"></stop>
            <stop stop-color="#FFD594" offset="100%"></stop>
        </linearGradient>
        <linearGradient x1="50%" y1="0%" x2="50%" y2="100%" id="linearGradient-2">
            <stop stop-color="#FFFFFF" offset="0%"></stop>
            <stop stop-color="#FFF0DC" offset="100%"></stop>
        </linearGradient>
        <linearGradient x1="50%" y1="0%" x2="50%" y2="100%" id="linearGradient-3">
            <stop stop-color="#FFFFFF" stop-opacity="0" offset="0%"></stop>
            <stop stop-color="#FFFFFF" offset="100%"></stop>
        </linearGradient>
    </defs>
    <g id="icon/工具/去哪里吃" stroke="none" stroke-width="1" fill="none" fill-rule="evenodd">
        <path d="M4.14336123e-16,15.3833112 L-4.14336123e-16,28.6166888 C2.4074122e-16,33.9658012 0.556953667,35.9055187 1.60279622,37.8610742 C2.64863878,39.8166298 4.18337022,41.3513612 6.13892578,42.3972038 C8.09448133,43.4430463 10.0341988,44 15.3833112,44 L28.6166888,44 C33.9658012,44 35.9055187,43.4430463 37.8610742,42.3972038 C39.8166298,41.3513612 41.3513612,39.8166298 42.3972038,37.8610742 C43.4430463,35.9055187 44,33.9658012 44,28.6166888 L44,15.3833112 C44,10.0341988 43.4430463,8.09448133 42.3972038,6.13892578 C41.3513612,4.18337022 39.8166298,2.64863878 37.8610742,1.60279622 C35.9055187,0.556953667 33.9658012,-3.61111829e-16 28.6166888,6.21504185e-16 L15.3833112,-6.21504185e-16 C10.0341988,3.61111829e-16 8.09448133,0.556953667 6.13892578,1.60279622 C4.18337022,2.64863878 2.64863878,4.18337022 1.60279622,6.13892578 C0.556953667,8.09448133 -2.4074122e-16,10.0341988 4.14336123e-16,15.3833112 Z" id="Rectangle-" fill="url(#linearGradient-1)"></path>
        <path d="M16.466835,9 C13.447108,9 11,11.8915801 11,15.4611224 C11,18.2485622 12.5619574,20.7497754 14.775279,21.5835025 C14.5668081,23.7195562 13.8118605,31.3267629 13.8118605,32.343022 C13.8118605,33.8018455 15.0090972,35 16.466835,35 C18.0809499,35 19.1224139,33.9582788 19.1224139,32.343022 C19.1224139,31.1181323 18.4196237,23.6152567 18.2111528,21.5574037 C20.3977596,20.6715428 21.908291,18.2224317 21.908291,15.4611224 C21.9076868,11.8915801 19.460547,9 16.466199,9 L16.466835,9 Z M33.3884379,9.75552639 L31.0716282,9.75552639 L31.0716282,16.8158056 C31.0716282,17.1802012 30.7589378,17.493004 30.3941853,17.493004 C30.0234855,17.4860656 29.724725,17.1867895 29.7180145,16.8158056 L29.7180145,9.75552639 L27.7392425,9.75552639 L27.7392425,16.8158056 C27.7392425,17.1802012 27.4265521,17.493004 27.0624356,17.493004 C26.6914815,17.4864157 26.3923075,17.1870442 26.3857242,16.8158056 L26.3857242,9.75552639 L24.0688191,9.75552639 C23.7040666,9.75552639 23.3915034,10.0683292 23.3915034,10.4327248 L23.3915034,16.5028755 C23.3915034,18.7954579 24.8758288,20.8279761 27.0103736,21.5312732 C26.8019027,23.5631548 26.0470822,31.3273677 26.0470822,32.343022 C26.0470822,33.8018455 27.2441917,35 28.7018978,35 C30.3166805,35 31.3574766,33.9582788 31.3574766,32.343022 C31.3574766,31.1181323 30.6286395,23.4849541 30.4462473,21.5051745 C32.5293661,20.7757468 33.9871039,18.743356 33.9871039,16.5028755 L33.9871039,10.4067534 C34.0652448,10.0423578 33.7786331,9.75552639 33.3884379,9.75552639 Z" id="Fill-1" fill="url(#linearGradient-2)" fill-rule="nonzero"></path>
        <circle id="椭圆形" fill="url(#linearGradient-3)" opacity="0.435849144" cx="31.5" cy="29.5" r="7.5"></circle>
    </g>
</svg>