<?xml version="1.0" encoding="UTF-8"?>
<svg width="44px" height="44px" viewBox="0 0 44 44" version="1.1" xmlns="http://www.w3.org/2000/svg" xmlns:xlink="http://www.w3.org/1999/xlink">
    <!-- Generator: Sketch 63 (92445) - https://sketch.com -->
    <title>icon/工具/电商采购</title>
    <desc>Created with Sketch.</desc>
    <defs>
        <linearGradient x1="105.439467%" y1="78.183398%" x2="13.1550721%" y2="16.8772172%" id="linearGradient-1">
            <stop stop-color="#FF120B" offset="0%"></stop>
            <stop stop-color="#FF5753" offset="100%"></stop>
        </linearGradient>
        <linearGradient x1="50%" y1="0%" x2="50%" y2="100%" id="linearGradient-2">
            <stop stop-color="#FFFFFF" offset="0%"></stop>
            <stop stop-color="#FFE6F3" offset="100%"></stop>
        </linearGradient>
        <linearGradient x1="50%" y1="0%" x2="50%" y2="100%" id="linearGradient-3">
            <stop stop-color="#FFFFFF" stop-opacity="0" offset="0%"></stop>
            <stop stop-color="#FFFFFF" offset="100%"></stop>
        </linearGradient>
    </defs>
    <g id="icon/工具/电商采购" stroke="none" stroke-width="1" fill="none" fill-rule="evenodd">
        <path d="M4.14336123e-16,15.3833112 L-4.14336123e-16,28.6166888 C2.4074122e-16,33.9658012 0.556953667,35.9055187 1.60279622,37.8610742 C2.64863878,39.8166298 4.18337022,41.3513612 6.13892578,42.3972038 C8.09448133,43.4430463 10.0341988,44 15.3833112,44 L28.6166888,44 C33.9658012,44 35.9055187,43.4430463 37.8610742,42.3972038 C39.8166298,41.3513612 41.3513612,39.8166298 42.3972038,37.8610742 C43.4430463,35.9055187 44,33.9658012 44,28.6166888 L44,15.3833112 C44,10.0341988 43.4430463,8.09448133 42.3972038,6.13892578 C41.3513612,4.18337022 39.8166298,2.64863878 37.8610742,1.60279622 C35.9055187,0.556953667 33.9658012,-3.61111829e-16 28.6166888,6.21504185e-16 L15.3833112,-6.21504185e-16 C10.0341988,3.61111829e-16 8.09448133,0.556953667 6.13892578,1.60279622 C4.18337022,2.64863878 2.64863878,4.18337022 1.60279622,6.13892578 C0.556953667,8.09448133 -2.4074122e-16,10.0341988 4.14336123e-16,15.3833112 Z" id="Rectangle-" fill="url(#linearGradient-1)" fill-rule="nonzero"></path>
        <path d="M34.2905936,33.1569459 C33.7488968,33.7147144 33.0599068,34 32.2524447,34 L11.7474493,34 C10.9386451,34 10.2483466,33.7137197 9.70745501,33.1528067 C9.16656345,32.5920541 8.93220283,31.9253824 9.01688804,31.1763432 L9.61926422,13.2899536 C9.76682585,11.9790388 10.9344685,11 12.3500603,11 L31.6360438,11 C33.0541184,11 34.2238749,11.9829213 34.3675109,13.2969806 L34.9839118,31.1839799 C35.0663491,31.9317677 34.8314852,32.5992095 34.2905936,33.1569459 Z M27.4968359,14.8499277 C26.7382255,14.8499277 26.1239558,15.4218786 26.1239558,16.1282741 L26.1239558,18.6847103 C26.1239558,20.8027095 24.2799051,22.5194929 22.0050469,22.5194929 C19.7301887,22.5194929 17.886138,20.8027095 17.886138,18.6847103 L17.886138,16.1282741 C17.886138,15.4221032 17.2718683,14.8499277 16.5132579,14.8499277 C15.754681,14.8499277 15.1402435,15.4218786 15.1402435,16.1282741 L15.1402435,18.6847103 C15.1402435,22.2145379 18.2136725,25.0764103 22.0047785,25.0764103 C25.7958845,25.0764103 28.869582,22.2150513 28.869582,18.6847103 L28.869582,16.1282741 C28.8698503,15.4221032 28.2554128,14.8499277 27.4968359,14.8499277 Z" id="Fill-1" fill="url(#linearGradient-2)" fill-rule="nonzero"></path>
        <circle id="椭圆形" fill="url(#linearGradient-3)" opacity="0.435849144" cx="32.5" cy="30.5" r="7.5"></circle>
    </g>
</svg>