<?xml version="1.0" encoding="UTF-8"?>
<svg width="44px" height="44px" viewBox="0 0 44 44" version="1.1" xmlns="http://www.w3.org/2000/svg" xmlns:xlink="http://www.w3.org/1999/xlink">
    <!-- Generator: Sketch 63 (92445) - https://sketch.com -->
    <title>icon/工具/我的二维码</title>
    <desc>Created with Sketch.</desc>
    <defs>
        <linearGradient x1="100%" y1="100%" x2="6.48711011%" y2="6.4610238%" id="linearGradient-1">
            <stop stop-color="#32D8A9" offset="0%"></stop>
            <stop stop-color="#41DCD5" offset="100%"></stop>
            <stop stop-color="#75E5A6" offset="100%"></stop>
        </linearGradient>
        <linearGradient x1="66.5661982%" y1="0%" x2="66.5661982%" y2="100%" id="linearGradient-2">
            <stop stop-color="#FFFFFF" offset="0%"></stop>
            <stop stop-color="#E3FFF0" offset="100%"></stop>
        </linearGradient>
        <linearGradient x1="50%" y1="0%" x2="50%" y2="100%" id="linearGradient-3">
            <stop stop-color="#FFFFFF" stop-opacity="0" offset="0%"></stop>
            <stop stop-color="#FFFFFF" offset="100%"></stop>
        </linearGradient>
    </defs>
    <g id="icon/工具/我的二维码" stroke="none" stroke-width="1" fill="none" fill-rule="evenodd">
        <path d="M4.14336123e-16,15.3833112 L-4.14336123e-16,28.6166888 C2.4074122e-16,33.9658012 0.556953667,35.9055187 1.60279622,37.8610742 C2.64863878,39.8166298 4.18337022,41.3513612 6.13892578,42.3972038 C8.09448133,43.4430463 10.0341988,44 15.3833112,44 L28.6166888,44 C33.9658012,44 35.9055187,43.4430463 37.8610742,42.3972038 C39.8166298,41.3513612 41.3513612,39.8166298 42.3972038,37.8610742 C43.4430463,35.9055187 44,33.9658012 44,28.6166888 L44,15.3833112 C44,10.0341988 43.4430463,8.09448133 42.3972038,6.13892578 C41.3513612,4.18337022 39.8166298,2.64863878 37.8610742,1.60279622 C35.9055187,0.556953667 33.9658012,-3.61111829e-16 28.6166888,6.21504185e-16 L15.3833112,-6.21504185e-16 C10.0341988,3.61111829e-16 8.09448133,0.556953667 6.13892578,1.60279622 C4.18337022,2.64863878 2.64863878,4.18337022 1.60279622,6.13892578 C0.556953667,8.09448133 -2.4074122e-16,10.0341988 4.14336123e-16,15.3833112 Z" id="Rectangle-" fill="url(#linearGradient-1)"></path>
        <path d="M12.8,34 L17.5999016,34 C19.1462989,34 20.3999016,32.7463973 20.3999016,31.2 L20.3999016,26.3999578 C20.3999016,24.8535605 19.1462989,23.5999578 17.5999016,23.5999578 L12.8,23.5999578 C11.2536027,23.5999578 10,24.8535605 10,26.3999578 L10,31.2 C10,32.7463973 11.2536027,34 12.8,34 Z M13.2000211,30.7999789 L17.2000211,30.7999789 L17.2000211,26.8000141 L13.2000211,26.8000141 L13.2000211,30.7999789 Z M12.8,20.3999367 L17.5999016,20.3999367 C19.1462989,20.3999367 20.3999016,19.146334 20.3999016,17.5999367 L20.3999016,12.8 C20.3999016,11.2536027 19.1462989,10 17.5999016,10 L12.8,10 C11.2536027,10 10,11.2536027 10,12.8 L10,17.5999367 C10,19.146334 11.2536027,20.3999367 12.8,20.3999367 Z M13.2000211,17.2000211 L17.2000211,17.2000211 L17.2000211,13.2000562 L13.2000211,13.2000562 L13.2000211,17.2000211 Z M26.3999578,20.3999367 L31.2,20.3999367 C32.7463973,20.3999367 34,19.146334 34,17.5999367 L34,12.8 C34,11.2536027 32.7463973,10 31.2,10 L26.3999578,10 C24.8535605,10 23.5999578,11.2536027 23.5999578,12.8 L23.5999578,17.5999367 C23.5999578,19.146334 24.8535605,20.3999367 26.3999578,20.3999367 Z M26.7999789,17.2000211 L30.7999789,17.2000211 L30.7999789,13.2000562 L26.7999789,13.2000562 L26.7999789,17.2000211 Z M26.7999789,28.400007 L30.7999789,28.400007 L30.7999789,25.1999684 C30.7999789,24.3163069 31.516328,23.5999578 32.3999895,23.5999578 C33.2836509,23.5999578 34,24.3163069 34,25.1999684 L34,32.3999895 C34,33.2836509 33.2836509,34 32.3999895,34 C31.516328,34 30.7999789,33.2836509 30.7999789,32.3999895 L30.7999789,31.5999227 L30.7999789,31.5999227 L26.7999789,31.5999227 L26.7999789,32.3999895 C26.7999789,33.2836509 26.0836298,34 25.1999684,34 C24.3163069,34 23.5999578,33.2836509 23.5999578,32.3999895 L23.5999578,28.400007 L23.5999578,28.400007 L26.7999789,28.400007 Z M24.9999578,26.8000141 L26.7999789,26.8000141 L26.7999789,26.8000141 L26.7999789,25.1999684 C26.7999789,24.3163069 26.0836298,23.5999578 25.1999684,23.5999578 C24.3163069,23.5999578 23.5999578,24.3163069 23.5999578,25.1999684 L23.5999578,25.4000141 C23.5999578,26.1732127 24.2267592,26.8000141 24.9999578,26.8000141 Z" id="Fill-1" fill="url(#linearGradient-2)"></path>
        <circle id="椭圆形" fill="url(#linearGradient-3)" opacity="0.435849144" cx="32.5" cy="30.5" r="7.5"></circle>
    </g>
</svg>