<?xml version="1.0" encoding="UTF-8"?>
<svg width="59px" height="59px" viewBox="0 0 59 59" version="1.1" xmlns="http://www.w3.org/2000/svg" xmlns:xlink="http://www.w3.org/1999/xlink">
    <!-- Generator: Sketch 63 (92445) - https://sketch.com -->
    <title>icon/章/已完成</title>
    <desc>Created with Sketch.</desc>
    <g id="页面" stroke="none" stroke-width="1" fill="none" fill-rule="evenodd">
        <g id="预约中心/餐厅" transform="translate(-294.000000, -343.000000)">
            <g id="编组" transform="translate(12.000000, 332.000000)">
                <g id="icon/章/已完成" transform="translate(311.500000, 40.500000) rotate(-30.000000) translate(-311.500000, -40.500000) translate(282.000000, 11.000000)">
                    <g id="编组-5">
                        <circle id="椭圆形" stroke="#E2E2E2" stroke-width="2.52" cx="29.5" cy="29.5" r="28.24"></circle>
                        <path d="M46.3571429,14.4049448 C42.2126372,9.70490945 36.1634796,6.74285714 29.426557,6.74285714 C22.768796,6.74285714 16.782732,9.63570767 12.6428571,14.2399844 M12.6965856,44.8195606 C16.8344376,49.3892198 22.7975428,52.2571429 29.426557,52.2571429 C36.1027632,52.2571429 42.1035456,49.3482408 46.2446229,44.7217077" id="形状" stroke="#E2E2E2" stroke-width="1.68" stroke-linecap="round"></path>
                        <path d="M18.8199024,13.4857143 L19.6868857,15.2424142 L21.6255192,15.5241142 L20.2227108,16.8915144 L20.5538689,18.8223144 L18.8199024,17.9107143 L17.0859359,18.8223144 L17.4170941,16.8915144 L16.0142857,15.5241142 L17.9529192,15.2424142 L18.8199024,13.4857143 Z M39.891331,12.6428571 L40.7583143,14.3995571 L42.6969477,14.681257 L41.2941394,16.0486572 L41.6252975,17.9794573 L39.891331,17.0678571 L38.1573645,17.9794573 L38.4885226,16.0486572 L37.0857143,14.681257 L39.0243478,14.3995571 L39.891331,12.6428571 Z M29.3556167,10.1142857 L30.2226,11.8709856 L32.1612334,12.1526856 L30.7584251,13.5200858 L31.0895832,15.4508858 L29.3556167,14.5392857 L27.6216502,15.4508858 L27.9528084,13.5200858 L26.55,12.1526856 L28.4886335,11.8709856 L29.3556167,10.1142857 Z" id="形状结合" fill="#D8D8D8"></path>
                        <path d="M18.8199024,43.8285714 L19.6868857,45.5852714 L21.6255192,45.8669713 L20.2227108,47.2343715 L20.5538689,49.1651716 L18.8199024,48.2535714 L17.0859359,49.1651716 L17.4170941,47.2343715 L16.0142857,45.8669713 L17.9529192,45.5852714 L18.8199024,43.8285714 Z M39.891331,42.9857143 L40.7583143,44.7424142 L42.6969477,45.0241142 L41.2941394,46.3915144 L41.6252975,48.3223144 L39.891331,47.4107143 L38.1573645,48.3223144 L38.4885226,46.3915144 L37.0857143,45.0241142 L39.0243478,44.7424142 L39.891331,42.9857143 Z M29.3556167,40.4571429 L30.2226,42.2138428 L32.1612334,42.4955427 L30.7584251,43.8629429 L31.0895832,45.793743 L29.3556167,44.8821429 L27.6216502,45.793743 L27.9528084,43.8629429 L26.55,42.4955427 L28.4886335,42.2138428 L29.3556167,40.4571429 Z" id="形状结合" fill="#D8D8D8" transform="translate(29.355617, 44.811157) scale(1, -1) translate(-29.355617, -44.811157) "></path>
                        <text id="已完成" font-family="PingFangSC-Medium, PingFang SC" font-size="13.44" font-weight="400" fill="#E2E2E2">
                            <tspan x="9.27142857" y="34.2608844">已预约</tspan>
                        </text>
                    </g>
                </g>
            </g>
        </g>
    </g>
</svg>